#N canvas 1132 386 1127 785 12;
#X obj 144 -11 inlet;
#X text 4 -7 receives midi note;
#X obj 45 384 phasor~;
#X obj 105 384 osc~;
#X obj 154 384 cos~;
#X obj 45 358 mtof;
#X obj 99 358 mtof;
#X obj 154 358 mtof;
#X obj 49 424 *~;
#X obj 570 451 *~;
#X obj 1075 434 *~;
#X obj 375 551 +~;
#X obj 393 592 +~;
#X obj 393 616 outlet~;
#X floatatom 160 448 5 0 0 0 - - - 0;
#X floatatom 9 395 5 0 0 0 - - - 0;
#X obj 208 455 cyclone/line~;
#X obj 206 407 pack f f;
#X obj 209 355 1;
#X obj 264 357 random 1000;
#X obj 232 300 bng 15 250 50 0 empty empty empty 17 7 0 10 #fcfcfc
#000000 #000000;
#X obj 373 357 delay;
#X obj 373 381 0;
#X obj 408 381 random 1000;
#X obj 232 320 delay 1;
#X obj 432 73 bng 15 250 50 0 empty empty empty 17 7 0 10 #fcfcfc #000000
#000000;
#X obj 432 93 random 3;
#X floatatom 432 117 5 0 0 0 - - - 0;
#X obj 432 140 select 1;
#X obj 363 140 select 0;
#X obj 501 139 select 2;
#X obj 592 409 cyclone/line~;
#X obj 590 361 pack f f;
#X obj 593 309 1;
#X obj 648 311 random 1000;
#X obj 616 254 bng 15 250 50 0 empty empty empty 17 7 0 10 #fcfcfc
#000000 #000000;
#X obj 757 311 delay;
#X obj 757 335 0;
#X obj 792 335 random 1000;
#X obj 616 274 delay 1;
#X obj 1054 378 cyclone/line~;
#X obj 1052 330 pack f f;
#X obj 1055 278 1;
#X obj 1110 280 random 1000;
#X obj 1078 223 bng 15 250 50 0 empty empty empty 17 7 0 10 #fcfcfc
#000000 #000000;
#X obj 1219 280 delay;
#X obj 1219 304 0;
#X obj 1254 304 random 1000;
#X obj 1078 243 delay 1;
#X obj 216 72 random 3;
#X obj 217 52 bng 15 250 50 0 empty empty empty 17 7 0 10 #fcfcfc #000000
#000000;
#X floatatom 217 97 5 0 0 0 - - - 0;
#X obj 217 120 select 1;
#X obj 148 120 select 0;
#X obj 286 119 select 2;
#X obj 46 179 - 12;
#X obj 58 89 f;
#X obj 152 174 - 0;
#X obj 220 173 + 12;
#X floatatom 47 204 5 0 0 0 - - - 0;
#X obj 96 89 f;
#X obj 133 89 f;
#X floatatom 152 198 5 0 0 0 - - - 0;
#X floatatom 220 197 5 0 0 0 - - - 0;
#X connect 0 0 25 0;
#X connect 0 0 50 0;
#X connect 0 0 56 1;
#X connect 0 0 60 1;
#X connect 0 0 61 1;
#X connect 2 0 8 0;
#X connect 3 0 9 0;
#X connect 4 0 10 0;
#X connect 5 0 2 0;
#X connect 5 0 15 0;
#X connect 6 0 3 0;
#X connect 7 0 4 0;
#X connect 8 0 11 0;
#X connect 9 0 11 1;
#X connect 10 0 12 1;
#X connect 11 0 12 0;
#X connect 12 0 13 0;
#X connect 16 0 8 1;
#X connect 17 0 16 0;
#X connect 18 0 17 0;
#X connect 19 0 17 1;
#X connect 19 0 21 1;
#X connect 20 0 18 0;
#X connect 20 0 19 0;
#X connect 20 0 24 0;
#X connect 21 0 22 0;
#X connect 21 0 23 0;
#X connect 22 0 17 0;
#X connect 23 0 17 1;
#X connect 24 0 21 0;
#X connect 25 0 26 0;
#X connect 26 0 27 0;
#X connect 27 0 28 0;
#X connect 27 0 29 0;
#X connect 27 0 30 0;
#X connect 28 0 35 0;
#X connect 29 0 20 0;
#X connect 30 0 44 0;
#X connect 31 0 9 1;
#X connect 32 0 31 0;
#X connect 33 0 32 0;
#X connect 34 0 32 1;
#X connect 34 0 36 1;
#X connect 35 0 33 0;
#X connect 35 0 34 0;
#X connect 35 0 39 0;
#X connect 36 0 37 0;
#X connect 36 0 38 0;
#X connect 37 0 32 0;
#X connect 38 0 32 1;
#X connect 39 0 36 0;
#X connect 40 0 10 1;
#X connect 41 0 40 0;
#X connect 42 0 41 0;
#X connect 43 0 41 1;
#X connect 43 0 45 1;
#X connect 44 0 42 0;
#X connect 44 0 43 0;
#X connect 44 0 48 0;
#X connect 45 0 46 0;
#X connect 45 0 47 0;
#X connect 46 0 41 0;
#X connect 47 0 41 1;
#X connect 48 0 45 0;
#X connect 49 0 51 0;
#X connect 50 0 49 0;
#X connect 51 0 52 0;
#X connect 51 0 53 0;
#X connect 51 0 54 0;
#X connect 52 0 60 0;
#X connect 53 0 56 0;
#X connect 54 0 61 0;
#X connect 55 0 59 0;
#X connect 56 0 55 0;
#X connect 57 0 62 0;
#X connect 58 0 63 0;
#X connect 59 0 6 0;
#X connect 59 0 7 0;
#X connect 59 0 5 0;
#X connect 60 0 57 0;
#X connect 61 0 58 0;
#X connect 62 0 7 0;
#X connect 62 0 6 0;
#X connect 62 0 5 0;
#X connect 63 0 7 0;
#X connect 63 0 6 0;
#X connect 63 0 5 0;
