#N canvas 629 276 816 654 12;
#X obj 188 191 inlet~;
#X obj 425 76 loadbang;
#X msg 425 124 define_loudspeakers 2 -45 45 -135 135;
#X obj 353 100 tgl 15 0 empty empty empty 17 7 0 10 #fcfcfc #000000
#000000 0 1;
#X obj 353 123 metro 100;
#X obj 212 299 *~;
#X obj 253 300 *~;
#X obj 298 300 *~;
#X obj 343 300 *~;
#X obj 702 99 tgl 15 0 empty empty empty 17 7 0 10 #fcfcfc #000000
#000000 0 1;
#X obj 702 148 random 360;
#X obj 186 386 outlet~;
#X obj 249 386 outlet~;
#X obj 310 386 outlet~;
#X obj 372 386 outlet~;
#X obj 365 268 route 0 1 2 3;
#X floatatom 578 333 5 0 0 0 - - - 0;
#X floatatom 523 333 5 0 0 0 - - - 0;
#X floatatom 476 331 5 0 0 0 - - - 0;
#X floatatom 429 334 5 0 0 0 - - - 0;
#X obj 367 238 vbap 90 0 0;
#X obj 736 56 bng 15 250 50 0 empty empty empty 17 7 0 10 #fcfcfc #000000
#000000;
#X floatatom 697 210 5 0 0 0 - - - 0;
#X msg 422 181 0;
#X msg 460 182 0, f 4;
#X obj 702 124 metro 5000;
#X connect 0 0 5 0;
#X connect 0 0 8 0;
#X connect 0 0 7 0;
#X connect 0 0 6 0;
#X connect 1 0 3 0;
#X connect 1 0 9 0;
#X connect 1 0 2 0;
#X connect 1 0 23 0;
#X connect 1 0 24 0;
#X connect 2 0 20 0;
#X connect 3 0 4 0;
#X connect 4 0 20 0;
#X connect 5 0 11 0;
#X connect 6 0 12 0;
#X connect 7 0 13 0;
#X connect 8 0 14 0;
#X connect 9 0 25 0;
#X connect 10 0 20 1;
#X connect 10 0 22 0;
#X connect 15 0 5 1;
#X connect 15 0 19 0;
#X connect 15 1 6 1;
#X connect 15 1 18 0;
#X connect 15 2 7 1;
#X connect 15 2 17 0;
#X connect 15 3 8 1;
#X connect 15 3 16 0;
#X connect 20 0 15 0;
#X connect 21 0 10 0;
#X connect 23 0 20 2;
#X connect 24 0 20 3;
#X connect 25 0 10 0;
