#N canvas 1280 25 1280 651 12;
#X declare -lib iemlib;
#X msg 136 67 devices;
#X msg 336 77 close;
#X obj 153 139 comport 0 9600;
#X msg 258 74 open 2;
#X obj 153 167 sel 13 10;
#X obj 153 195 zl group 100;
#X obj 70 343 print;
#X obj 505 41 declare -lib iemlib;
#X obj 153 223 iem_alisttosym;
#X obj 153 253 fromsymbol;
#X obj 153 283 unpack f f f;
#X floatatom 153 323 5 0 0 0 - - - 0;
#X floatatom 198 324 5 0 0 0 - - - 0;
#X floatatom 242 325 5 0 0 0 - - - 0;
#X connect 0 0 2 0;
#X connect 1 0 2 0;
#X connect 2 0 4 0;
#X connect 3 0 2 0;
#X connect 4 0 5 0;
#X connect 4 2 5 0;
#X connect 5 0 8 0;
#X connect 8 0 9 0;
#X connect 9 0 10 0;
#X connect 10 0 11 0;
#X connect 10 1 12 0;
#X connect 10 2 13 0;
