#N canvas 381 125 1942 943 12;
#X declare -lib iemlib;
#X msg 270 218 devices;
#X obj 270 268 comport 0 9600;
#X obj 270 296 sel 13 10;
#X obj 270 324 zl group 100;
#X obj 676 252 declare -lib iemlib;
#X obj 270 352 iem_alisttosym;
#X obj 270 382 fromsymbol;
#X floatatom 270 489 5 0 0 0 - - - 0;
#X floatatom 326 489 5 0 0 0 - - - 0;
#X floatatom 384 489 5 0 0 0 - - - 0;
#X msg 338 219 open \$1;
#X msg 406 220 close \$1;
#X obj 270 175 inlet;
#X obj 338 177 inlet;
#X obj 407 178 inlet;
#X obj 175 703 outlet;
#X obj 231 703 outlet;
#X obj 289 703 outlet;
#X obj 165 289 print;
#X obj 165 262 spigot;
#X obj 204 202 tgl 15 0 empty empty empty 17 7 0 10 #fcfcfc #000000
#000000 0 1;
#X obj 204 172 inlet;
#X text 492 227 2201;
#X obj 271 412 unpack f f f f f f f f f f f;
#X floatatom 441 489 5 0 0 0 - - - 0;
#X floatatom 497 489 5 0 0 0 - - - 0;
#X floatatom 555 489 5 0 0 0 - - - 0;
#X obj 346 703 outlet;
#X obj 402 703 outlet;
#X obj 460 703 outlet;
#X floatatom 608 489 5 0 0 0 - - - 0;
#X floatatom 664 489 5 0 0 0 - - - 0;
#X floatatom 722 489 5 0 0 0 - - - 0;
#X obj 513 703 outlet;
#X obj 569 703 outlet;
#X obj 627 703 outlet;
#X floatatom 778 489 5 0 0 0 - - - 0;
#X floatatom 834 489 5 0 0 0 - - - 0;
#X obj 778 524 outlet;
#X obj 834 524 outlet;
#X floatatom 100 613 10 0 0 0 - - - 0;
#X obj 100 589 mavg 50;
#X floatatom 178 613 10 0 0 0 - - - 0;
#X obj 178 589 mavg 50;
#X floatatom 254 613 10 0 0 0 - - - 0;
#X obj 254 589 mavg 50;
#X floatatom 330 613 10 0 0 0 - - - 0;
#X obj 330 589 mavg 50;
#X floatatom 405 613 10 0 0 0 - - - 0;
#X obj 405 589 mavg 50;
#X floatatom 481 613 10 0 0 0 - - - 0;
#X obj 481 589 mavg 50;
#X floatatom 558 613 10 0 0 0 - - - 0;
#X floatatom 634 613 10 0 0 0 - - - 0;
#X floatatom 712 613 10 0 0 0 - - - 0;
#X floatatom 1040 509 5 0 0 0 - - - 0;
#X obj 1040 455 loadbang;
#X msg 1040 483 30;
#X connect 0 0 1 0;
#X connect 1 0 2 0;
#X connect 1 0 19 0;
#X connect 2 0 3 0;
#X connect 2 2 3 0;
#X connect 3 0 5 0;
#X connect 5 0 6 0;
#X connect 6 0 23 0;
#X connect 7 0 41 0;
#X connect 8 0 43 0;
#X connect 9 0 45 0;
#X connect 10 0 1 0;
#X connect 11 0 1 0;
#X connect 12 0 0 0;
#X connect 13 0 10 0;
#X connect 14 0 11 0;
#X connect 19 0 18 0;
#X connect 20 0 19 1;
#X connect 21 0 20 0;
#X connect 23 0 7 0;
#X connect 23 1 8 0;
#X connect 23 2 9 0;
#X connect 23 3 24 0;
#X connect 23 4 25 0;
#X connect 23 5 26 0;
#X connect 23 6 30 0;
#X connect 23 7 31 0;
#X connect 23 8 32 0;
#X connect 23 9 36 0;
#X connect 23 10 37 0;
#X connect 24 0 47 0;
#X connect 25 0 49 0;
#X connect 26 0 51 0;
#X connect 30 0 52 0;
#X connect 31 0 53 0;
#X connect 32 0 54 0;
#X connect 36 0 38 0;
#X connect 37 0 39 0;
#X connect 40 0 15 0;
#X connect 41 0 40 0;
#X connect 42 0 16 0;
#X connect 43 0 42 0;
#X connect 44 0 17 0;
#X connect 45 0 44 0;
#X connect 46 0 27 0;
#X connect 47 0 46 0;
#X connect 48 0 28 0;
#X connect 49 0 48 0;
#X connect 50 0 29 0;
#X connect 51 0 50 0;
#X connect 52 0 33 0;
#X connect 53 0 34 0;
#X connect 54 0 35 0;
#X connect 55 0 51 1;
#X connect 55 0 49 1;
#X connect 55 0 47 1;
#X connect 55 0 45 1;
#X connect 55 0 43 1;
#X connect 55 0 41 1;
#X connect 56 0 57 0;
#X connect 57 0 55 0;
