#N canvas 447 403 910 542 12;
#X obj 51 278 +;
#X floatatom 91 245 5 0 0 0 - - - 0;
#X obj 14 171 inlet;
#X text 140 18 incoming note;
#X obj 175 97 sel 0;
#X obj 219 97 sel 1;
#X obj 265 97 sel 2;
#X obj 309 97 sel 3;
#X obj 109 278 +;
#X floatatom 149 245 5 0 0 0 - - - 0;
#X obj 205 173 2;
#X obj 238 173 3;
#X obj 270 173 4;
#X obj 301 173 5;
#X obj 332 173 7;
#X obj 365 173 9;
#X obj 396 173 10;
#X obj 218 59 random 5;
#X obj 355 98 sel 4;
#X obj 404 98 sel 5;
#X obj 195 278 +;
#X floatatom 235 245 5 0 0 0 - - - 0;
#X obj 253 278 +;
#X floatatom 293 245 5 0 0 0 - - - 0;
#X obj 345 278 +;
#X floatatom 385 245 5 0 0 0 - - - 0;
#X obj 403 278 +;
#X floatatom 443 245 5 0 0 0 - - - 0;
#X obj 491 278 +;
#X floatatom 531 245 5 0 0 0 - - - 0;
#X obj 549 278 +;
#X floatatom 589 245 5 0 0 0 - - - 0;
#X obj 630 278 +;
#X floatatom 670 245 5 0 0 0 - - - 0;
#X obj 688 278 +;
#X floatatom 728 245 5 0 0 0 - - - 0;
#X obj 766 278 +;
#X floatatom 806 245 5 0 0 0 - - - 0;
#X obj 824 278 +;
#X floatatom 864 245 5 0 0 0 - - - 0;
#X obj 44 304 outlet;
#X obj 109 302 outlet;
#X obj 195 302 outlet;
#X obj 253 302 outlet;
#X obj 345 302 outlet;
#X obj 403 302 outlet;
#X obj 491 302 outlet;
#X obj 549 302 outlet;
#X obj 630 302 outlet;
#X obj 688 302 outlet;
#X obj 766 302 outlet;
#X obj 824 302 outlet;
#X connect 0 0 40 0;
#X connect 1 0 0 1;
#X connect 2 0 17 0;
#X connect 2 0 0 0;
#X connect 2 0 38 0;
#X connect 2 0 36 0;
#X connect 2 0 34 0;
#X connect 2 0 32 0;
#X connect 2 0 30 0;
#X connect 2 0 28 0;
#X connect 2 0 26 0;
#X connect 2 0 24 0;
#X connect 2 0 22 0;
#X connect 2 0 20 0;
#X connect 2 0 8 0;
#X connect 4 0 10 0;
#X connect 4 0 13 0;
#X connect 5 0 11 0;
#X connect 5 0 14 0;
#X connect 6 0 12 0;
#X connect 6 0 15 0;
#X connect 7 0 13 0;
#X connect 7 0 16 0;
#X connect 8 0 41 0;
#X connect 9 0 8 1;
#X connect 10 0 1 0;
#X connect 10 0 33 0;
#X connect 11 0 21 0;
#X connect 12 0 25 0;
#X connect 12 0 37 0;
#X connect 13 0 9 0;
#X connect 13 0 29 0;
#X connect 14 0 23 0;
#X connect 14 0 35 0;
#X connect 14 0 39 0;
#X connect 15 0 27 0;
#X connect 16 0 31 0;
#X connect 17 0 4 0;
#X connect 17 0 5 0;
#X connect 17 0 6 0;
#X connect 17 0 7 0;
#X connect 17 0 18 0;
#X connect 17 0 19 0;
#X connect 18 0 10 0;
#X connect 18 0 14 0;
#X connect 19 0 12 0;
#X connect 19 0 14 0;
#X connect 20 0 42 0;
#X connect 21 0 20 1;
#X connect 22 0 43 0;
#X connect 23 0 22 1;
#X connect 24 0 44 0;
#X connect 25 0 24 1;
#X connect 26 0 45 0;
#X connect 27 0 26 1;
#X connect 28 0 46 0;
#X connect 29 0 28 1;
#X connect 30 0 47 0;
#X connect 31 0 30 1;
#X connect 32 0 48 0;
#X connect 33 0 32 1;
#X connect 34 0 49 0;
#X connect 35 0 34 1;
#X connect 36 0 50 0;
#X connect 37 0 36 1;
#X connect 38 0 51 0;
#X connect 39 0 38 1;
