#N canvas 528 299 1468 788 12;
#X obj 136 -121 rfft~;
#X obj 128 -58 *~;
#X obj 164 -56 *~;
#X obj 140 -18 +~;
#X obj 142 21 sqrt~;
#X obj 247 -160 tgl 15 0 empty empty empty 17 7 0 10 #fcfcfc #000000
#000000 0 1;
#N canvas 0 22 450 278 (subpatch) 0;
#X array \$0-AMags 64 float 1;
#A 0 0 0 0 0 0 0 0 0 0 0 0 0 0 0 0 0 0 0 0 0 0 0 0 0 0 0 0 0 0 0 0
0 0 0 0 0 0 0 0 0 0 0 0 0 0 0 0 0 0 0 0 0 0 0 0 0 0 0 0 0 0 0 0 0;
#X coords 0 100 63 0 200 140 1 0 0;
#X restore 469 445 graph;
#X obj 421 38 tgl 15 0 empty empty empty 17 7 0 10 #fcfcfc #000000
#000000 0 1;
#X obj 7 238 metro 100;
#X obj 81 261 snapshot~;
#X floatatom 81 291 5 0 0 0 - - - 0;
#X msg 81 171 1;
#X obj 81 201 sig~;
#X obj 185 259 snapshot~;
#X floatatom 185 289 5 0 0 0 - - - 0;
#X obj 185 199 sig~;
#X obj 288 259 snapshot~;
#X floatatom 288 289 5 0 0 0 - - - 0;
#X obj 288 199 sig~;
#X obj 389 260 snapshot~;
#X floatatom 389 290 5 0 0 0 - - - 0;
#X obj 389 200 sig~;
#X obj 493 258 snapshot~;
#X floatatom 493 288 5 0 0 0 - - - 0;
#X obj 493 198 sig~;
#X obj 596 258 snapshot~;
#X floatatom 596 288 5 0 0 0 - - - 0;
#X obj 596 198 sig~;
#X msg 185 169 2;
#X msg 288 169 3;
#X msg 389 170 4;
#X msg 493 168 5;
#X msg 596 168 6;
#X obj 698 257 snapshot~;
#X floatatom 698 287 5 0 0 0 - - - 0;
#X obj 698 197 sig~;
#X obj 802 255 snapshot~;
#X floatatom 802 285 5 0 0 0 - - - 0;
#X obj 802 195 sig~;
#X obj 905 255 snapshot~;
#X floatatom 905 285 5 0 0 0 - - - 0;
#X obj 905 195 sig~;
#X obj 1006 256 snapshot~;
#X floatatom 1006 286 5 0 0 0 - - - 0;
#X obj 1006 196 sig~;
#X obj 1110 254 snapshot~;
#X floatatom 1110 284 5 0 0 0 - - - 0;
#X obj 1110 194 sig~;
#X obj 1213 254 snapshot~;
#X floatatom 1213 284 5 0 0 0 - - - 0;
#X obj 1213 194 sig~;
#X msg 698 167 7;
#X msg 802 165 8;
#X msg 905 165 9;
#X msg 1006 166 10;
#X msg 1110 164 11;
#X msg 1213 164 12;
#X obj 1316 252 snapshot~;
#X floatatom 1316 282 5 0 0 0 - - - 0;
#X obj 1316 192 sig~;
#X obj 1419 252 snapshot~;
#X floatatom 1419 282 5 0 0 0 - - - 0;
#X obj 1419 192 sig~;
#X obj 1521 251 snapshot~;
#X floatatom 1521 281 5 0 0 0 - - - 0;
#X obj 1521 191 sig~;
#X obj 1625 249 snapshot~;
#X floatatom 1625 279 5 0 0 0 - - - 0;
#X obj 1625 189 sig~;
#X obj 1728 249 snapshot~;
#X floatatom 1728 279 5 0 0 0 - - - 0;
#X obj 1728 189 sig~;
#X obj 1829 250 snapshot~;
#X floatatom 1829 280 5 0 0 0 - - - 0;
#X obj 1829 190 sig~;
#X obj 1933 248 snapshot~;
#X floatatom 1933 278 5 0 0 0 - - - 0;
#X obj 1933 188 sig~;
#X obj 2036 248 snapshot~;
#X floatatom 2036 278 5 0 0 0 - - - 0;
#X obj 2036 188 sig~;
#X msg 1316 162 13;
#X msg 1419 162 14;
#X msg 1521 161 15;
#X msg 1625 159 16;
#X msg 1728 159 17;
#X msg 1829 160 18;
#X msg 1933 158 19;
#X msg 2036 159 20;
#X obj 421 8 loadbang;
#X obj 247 -202 loadbang;
#X obj 35 -158 inlet~;
#X obj 147 766 rfft~;
#X obj 139 829 *~;
#X obj 175 831 *~;
#X obj 151 869 +~;
#X obj 153 908 sqrt~;
#X obj 258 727 tgl 15 0 empty empty empty 17 7 0 10 #fcfcfc #000000
#000000 0 1;
#N canvas 0 22 450 278 (subpatch) 0;
#X array \$0-BMags 64 float 1;
#A 0 8.00163 8.50976 10.0145 12.6509 16.8481 23.7362 36.3956 65.9138
199.132 329.068 112.878 84.2453 96.6703 371.001 15.8033 21.0878 45.5371
371.464 120.176 88.3965 111.149 291.683 241.768 79.1231 55.4621 226.172
219.482 61.834 84.0616 203.543 212.115 145.824 114.201 0 0 0 0 0 0
0 0 0 0 0 0 0 0 0 0 0 0 0 0 0 0 0 0 0 0 0 0 0 0 0;
#X coords 0 100 63 0 200 140 1 0 0;
#X restore 687 446 graph;
#X obj 432 925 tgl 15 0 empty empty empty 17 7 0 10 #fcfcfc #000000
#000000 0 1;
#X obj 18 1125 metro 100;
#X obj 92 1148 snapshot~;
#X floatatom 92 1178 5 0 0 0 - - - 0;
#X msg 92 1058 1;
#X obj 92 1088 sig~;
#X obj 196 1146 snapshot~;
#X floatatom 196 1176 5 0 0 0 - - - 0;
#X obj 196 1086 sig~;
#X obj 299 1146 snapshot~;
#X floatatom 299 1176 5 0 0 0 - - - 0;
#X obj 299 1086 sig~;
#X obj 400 1147 snapshot~;
#X floatatom 400 1177 5 0 0 0 - - - 0;
#X obj 400 1087 sig~;
#X obj 504 1145 snapshot~;
#X floatatom 504 1175 5 0 0 0 - - - 0;
#X obj 504 1085 sig~;
#X obj 607 1145 snapshot~;
#X floatatom 607 1175 5 0 0 0 - - - 0;
#X obj 607 1085 sig~;
#X msg 196 1056 2;
#X msg 299 1056 3;
#X msg 400 1057 4;
#X msg 504 1055 5;
#X msg 607 1055 6;
#X obj 709 1144 snapshot~;
#X floatatom 709 1174 5 0 0 0 - - - 0;
#X obj 709 1084 sig~;
#X obj 813 1142 snapshot~;
#X floatatom 813 1172 5 0 0 0 - - - 0;
#X obj 813 1082 sig~;
#X obj 916 1142 snapshot~;
#X floatatom 916 1172 5 0 0 0 - - - 0;
#X obj 916 1082 sig~;
#X obj 1017 1143 snapshot~;
#X floatatom 1017 1173 5 0 0 0 - - - 0;
#X obj 1017 1083 sig~;
#X obj 1121 1141 snapshot~;
#X floatatom 1121 1171 5 0 0 0 - - - 0;
#X obj 1121 1081 sig~;
#X obj 1224 1141 snapshot~;
#X floatatom 1224 1171 5 0 0 0 - - - 0;
#X obj 1224 1081 sig~;
#X msg 709 1054 7;
#X msg 813 1052 8;
#X msg 916 1052 9;
#X msg 1017 1053 10;
#X msg 1121 1051 11;
#X msg 1224 1051 12;
#X obj 1327 1139 snapshot~;
#X floatatom 1327 1169 5 0 0 0 - - - 0;
#X obj 1327 1079 sig~;
#X obj 1430 1139 snapshot~;
#X floatatom 1430 1169 5 0 0 0 - - - 0;
#X obj 1430 1079 sig~;
#X obj 1532 1138 snapshot~;
#X floatatom 1532 1168 5 0 0 0 - - - 0;
#X obj 1532 1078 sig~;
#X obj 1636 1136 snapshot~;
#X floatatom 1636 1166 5 0 0 0 - - - 0;
#X obj 1636 1076 sig~;
#X obj 1739 1136 snapshot~;
#X floatatom 1739 1166 5 0 0 0 - - - 0;
#X obj 1739 1076 sig~;
#X obj 1840 1137 snapshot~;
#X floatatom 1840 1167 5 0 0 0 - - - 0;
#X obj 1840 1077 sig~;
#X obj 1944 1135 snapshot~;
#X floatatom 1944 1165 5 0 0 0 - - - 0;
#X obj 1944 1075 sig~;
#X obj 2047 1135 snapshot~;
#X floatatom 2047 1165 5 0 0 0 - - - 0;
#X obj 2047 1075 sig~;
#X msg 1327 1049 13;
#X msg 1430 1049 14;
#X msg 1532 1048 15;
#X msg 1636 1046 16;
#X msg 1739 1046 17;
#X msg 1840 1047 18;
#X msg 1944 1045 19;
#X msg 2047 1046 20;
#X obj 432 895 loadbang;
#X obj 258 685 loadbang;
#X floatatom 951 1967 5 0 0 0 - - - 0;
#X obj 945 2001 outlet;
#X obj 167 640 inlet~;
#X obj 81 314 s a1;
#X obj 185 312 s a2;
#X obj 288 312 s a3;
#X obj 389 313 s a4;
#X obj 493 311 s a5;
#X obj 596 311 s a6;
#X obj 698 310 s a7;
#X obj 802 308 s a8;
#X obj 905 308 s a9;
#X obj 1006 309 s a10;
#X obj 1110 307 s a11;
#X obj 1213 307 s a12;
#X obj 1316 305 s a13;
#X obj 1419 305 s a14;
#X obj 1521 304 s a15;
#X obj 1625 302 s a16;
#X obj 1728 302 s a17;
#X obj 1829 303 s a18;
#X obj 1933 301 s a19;
#X obj 2036 301 s a20;
#X obj 92 1201 s b1;
#X obj 196 1199 s b2;
#X obj 299 1199 s b3;
#X obj 400 1200 s b4;
#X obj 504 1198 s b5;
#X obj 607 1198 s b6;
#X obj 709 1197 s b7;
#X obj 813 1195 s b8;
#X obj 916 1195 s b9;
#X obj 1017 1196 s b10;
#X obj 1121 1194 s b11;
#X obj 1224 1194 s b12;
#X obj 1327 1192 s b13;
#X obj 1430 1192 s b14;
#X obj 1532 1191 s b15;
#X obj 1636 1189 s b16;
#X obj 1739 1189 s b17;
#X obj 1840 1190 s b18;
#X obj 1944 1188 s b19;
#X obj 2047 1188 s b20;
#X obj 292 1336 r a1;
#X obj 332 1336 r b1;
#X obj 309 1368 -;
#X obj 387 1368 -;
#X obj 464 1368 -;
#X obj 542 1368 -;
#X obj 620 1368 -;
#X obj 698 1368 -;
#X obj 775 1368 -;
#X obj 853 1368 -;
#X obj 930 1368 -;
#X obj 1008 1368 -;
#X obj 1085 1368 -;
#X obj 1163 1368 -;
#X obj 1241 1368 -;
#X obj 1319 1368 -;
#X obj 1396 1368 -;
#X obj 1474 1368 -;
#X obj 1551 1368 -;
#X obj 1629 1368 -;
#X obj 1706 1368 -;
#X obj 1784 1368 -;
#X obj 370 1336 r a2;
#X obj 410 1336 r b2;
#X obj 447 1336 r a3;
#X obj 487 1336 r b3;
#X obj 525 1336 r a4;
#X obj 565 1336 r b4;
#X obj 603 1336 r a5;
#X obj 643 1336 r b5;
#X obj 681 1336 r a6;
#X obj 721 1336 r b6;
#X obj 758 1336 r a7;
#X obj 798 1336 r b7;
#X obj 836 1336 r a8;
#X obj 876 1336 r b8;
#X obj 913 1336 r a9;
#X obj 953 1336 r b9;
#X obj 991 1336 r a10;
#X obj 1031 1336 r b10;
#X obj 1068 1336 r a11;
#X obj 1108 1336 r b11;
#X obj 1146 1336 r a12;
#X obj 1186 1336 r b12;
#X obj 1224 1336 r a13;
#X obj 1264 1336 r b13;
#X obj 1302 1336 r a14;
#X obj 1342 1336 r b14;
#X obj 1379 1336 r a15;
#X obj 1419 1336 r b15;
#X obj 1457 1336 r a16;
#X obj 1497 1336 r b16;
#X obj 1534 1336 r a17;
#X obj 1574 1336 r b17;
#X obj 1612 1336 r a18;
#X obj 1652 1336 r b18;
#X obj 1689 1336 r a19;
#X obj 1729 1336 r b19;
#X obj 1767 1336 r a20;
#X obj 1807 1336 r b20;
#X obj 947 1477 +;
#X obj 947 1501 +;
#X obj 947 1525 +;
#X obj 947 1549 +;
#X obj 947 1573 +;
#X obj 947 1597 +;
#X obj 947 1621 +;
#X obj 947 1645 +;
#X obj 947 1669 +;
#X obj 947 1693 +;
#X obj 947 1717 +;
#X obj 947 1741 +;
#X obj 947 1765 +;
#X obj 947 1789 +;
#X obj 947 1813 +;
#X obj 947 1837 +;
#X obj 947 1861 +;
#X obj 947 1909 +;
#X obj 947 1885 +;
#X obj 433 957 metro 10;
#X obj 259 889 metro 10;
#X obj 422 70 metro 10;
#X obj 248 3 metro 10;
#X obj 162 674 *~ 0.1;
#X obj 380 639 vsl 15 128 0 100 0 0 empty empty empty 0 -9 0 10 #fcfcfc
#000000 #000000 0 1;
#X floatatom 380 776 5 0 0 0 - - - 0;
#X obj 367 534 loadbang;
#X msg 367 558 13;
#X obj 209 868 abs~;
#X obj 89 48 abs~;
#X obj 138 84 tabwrite~ \$0-AMags;
#X obj 81 231 tabread~ \$0-AMags;
#X obj 185 229 tabread~ \$0-AMags;
#X obj 288 229 tabread~ \$0-AMags;
#X obj 389 230 tabread~ \$0-AMags;
#X obj 493 228 tabread~ \$0-AMags;
#X obj 596 228 tabread~ \$0-AMags;
#X obj 698 227 tabread~ \$0-AMags;
#X obj 802 225 tabread~ \$0-AMags;
#X obj 905 225 tabread~ \$0-AMags;
#X obj 1006 226 tabread~ \$0-AMags;
#X obj 1110 224 tabread~ \$0-AMags;
#X obj 1212 224 tabread~ \$0-AMags;
#X obj 1316 222 tabread~ \$0-AMags;
#X obj 1419 222 tabread~ \$0-AMags;
#X obj 1521 221 tabread~ \$0-AMags;
#X obj 1626 219 tabread~ \$0-AMags;
#X obj 1728 219 tabread~ \$0-AMags;
#X obj 1829 220 tabread~ \$0-AMags;
#X obj 1932 218 tabread~ \$0-AMags;
#X obj 2036 217 tabread~ \$0-AMags;
#X obj 153 932 tabwrite~ \$0-BMags;
#X obj 92 1117 tabread~ \$0-BMags;
#X obj 196 1116 tabread~ \$0-BMags;
#X obj 299 1116 tabread~ \$0-BMags;
#X obj 400 1117 tabread~ \$0-BMags;
#X obj 504 1115 tabread~ \$0-BMags;
#X obj 607 1115 tabread~ \$0-BMags;
#X obj 709 1114 tabread~ \$0-BMags;
#X obj 813 1112 tabread~ \$0-BMags;
#X obj 916 1112 tabread~ \$0-BMags;
#X obj 1017 1113 tabread~ \$0-BMags;
#X obj 1121 1111 tabread~ \$0-BMags;
#X obj 1327 1109 tabread~ \$0-BMags;
#X obj 1224 1111 tabread~ \$0-BMags;
#X obj 1430 1109 tabread~ \$0-BMags;
#X obj 1532 1108 tabread~ \$0-BMags;
#X obj 1636 1107 tabread~ \$0-BMags;
#X obj 1739 1106 tabread~ \$0-BMags;
#X obj 1840 1107 tabread~ \$0-BMags;
#X obj 1944 1105 tabread~ \$0-BMags;
#X obj 2047 1105 tabread~ \$0-BMags;
#X connect 0 0 1 0;
#X connect 0 0 1 1;
#X connect 0 1 2 0;
#X connect 0 1 2 1;
#X connect 1 0 3 0;
#X connect 2 0 3 1;
#X connect 3 0 4 0;
#X connect 4 0 315 0;
#X connect 5 0 308 0;
#X connect 7 0 8 0;
#X connect 7 0 307 0;
#X connect 8 0 9 0;
#X connect 8 0 13 0;
#X connect 8 0 78 0;
#X connect 8 0 75 0;
#X connect 8 0 72 0;
#X connect 8 0 69 0;
#X connect 8 0 66 0;
#X connect 8 0 36 0;
#X connect 8 0 33 0;
#X connect 8 0 25 0;
#X connect 8 0 22 0;
#X connect 8 0 19 0;
#X connect 8 0 16 0;
#X connect 8 0 63 0;
#X connect 8 0 60 0;
#X connect 8 0 57 0;
#X connect 8 0 48 0;
#X connect 8 0 45 0;
#X connect 8 0 42 0;
#X connect 9 0 10 0;
#X connect 10 0 186 0;
#X connect 11 0 12 0;
#X connect 12 0 317 0;
#X connect 13 0 14 0;
#X connect 14 0 187 0;
#X connect 15 0 318 0;
#X connect 16 0 17 0;
#X connect 17 0 188 0;
#X connect 18 0 319 0;
#X connect 19 0 20 0;
#X connect 20 0 189 0;
#X connect 21 0 320 0;
#X connect 22 0 23 0;
#X connect 23 0 190 0;
#X connect 24 0 321 0;
#X connect 25 0 26 0;
#X connect 26 0 191 0;
#X connect 27 0 322 0;
#X connect 28 0 15 0;
#X connect 29 0 18 0;
#X connect 30 0 21 0;
#X connect 31 0 24 0;
#X connect 32 0 27 0;
#X connect 33 0 34 0;
#X connect 34 0 192 0;
#X connect 35 0 323 0;
#X connect 36 0 37 0;
#X connect 37 0 193 0;
#X connect 38 0 324 0;
#X connect 39 0 40 0;
#X connect 40 0 194 0;
#X connect 41 0 325 0;
#X connect 42 0 43 0;
#X connect 43 0 195 0;
#X connect 44 0 326 0;
#X connect 45 0 46 0;
#X connect 46 0 196 0;
#X connect 47 0 327 0;
#X connect 48 0 49 0;
#X connect 49 0 197 0;
#X connect 50 0 328 0;
#X connect 51 0 35 0;
#X connect 52 0 38 0;
#X connect 53 0 41 0;
#X connect 54 0 44 0;
#X connect 55 0 47 0;
#X connect 56 0 50 0;
#X connect 57 0 58 0;
#X connect 58 0 198 0;
#X connect 59 0 329 0;
#X connect 60 0 61 0;
#X connect 61 0 199 0;
#X connect 62 0 330 0;
#X connect 63 0 64 0;
#X connect 64 0 200 0;
#X connect 65 0 331 0;
#X connect 66 0 67 0;
#X connect 67 0 201 0;
#X connect 68 0 332 0;
#X connect 69 0 70 0;
#X connect 70 0 202 0;
#X connect 71 0 333 0;
#X connect 72 0 73 0;
#X connect 73 0 203 0;
#X connect 74 0 334 0;
#X connect 75 0 76 0;
#X connect 76 0 204 0;
#X connect 77 0 335 0;
#X connect 78 0 79 0;
#X connect 79 0 205 0;
#X connect 80 0 336 0;
#X connect 81 0 59 0;
#X connect 82 0 62 0;
#X connect 83 0 65 0;
#X connect 84 0 68 0;
#X connect 85 0 71 0;
#X connect 86 0 74 0;
#X connect 87 0 77 0;
#X connect 88 0 80 0;
#X connect 89 0 7 0;
#X connect 90 0 5 0;
#X connect 91 0 0 0;
#X connect 92 0 93 0;
#X connect 92 0 93 1;
#X connect 92 1 94 0;
#X connect 92 1 94 1;
#X connect 93 0 95 0;
#X connect 94 0 95 1;
#X connect 95 0 314 0;
#X connect 96 0 337 0;
#X connect 97 0 306 0;
#X connect 99 0 100 0;
#X connect 99 0 305 0;
#X connect 100 0 101 0;
#X connect 100 0 105 0;
#X connect 100 0 170 0;
#X connect 100 0 167 0;
#X connect 100 0 164 0;
#X connect 100 0 161 0;
#X connect 100 0 158 0;
#X connect 100 0 128 0;
#X connect 100 0 125 0;
#X connect 100 0 117 0;
#X connect 100 0 114 0;
#X connect 100 0 111 0;
#X connect 100 0 108 0;
#X connect 100 0 155 0;
#X connect 100 0 152 0;
#X connect 100 0 149 0;
#X connect 100 0 140 0;
#X connect 100 0 137 0;
#X connect 100 0 134 0;
#X connect 101 0 102 0;
#X connect 102 0 206 0;
#X connect 103 0 104 0;
#X connect 104 0 338 0;
#X connect 105 0 106 0;
#X connect 106 0 207 0;
#X connect 107 0 339 0;
#X connect 108 0 109 0;
#X connect 109 0 208 0;
#X connect 110 0 340 0;
#X connect 111 0 112 0;
#X connect 112 0 209 0;
#X connect 113 0 341 0;
#X connect 114 0 115 0;
#X connect 115 0 210 0;
#X connect 116 0 342 0;
#X connect 117 0 118 0;
#X connect 118 0 211 0;
#X connect 119 0 343 0;
#X connect 120 0 107 0;
#X connect 121 0 110 0;
#X connect 122 0 113 0;
#X connect 123 0 116 0;
#X connect 124 0 119 0;
#X connect 125 0 126 0;
#X connect 126 0 212 0;
#X connect 127 0 344 0;
#X connect 128 0 129 0;
#X connect 129 0 213 0;
#X connect 130 0 345 0;
#X connect 131 0 132 0;
#X connect 132 0 214 0;
#X connect 133 0 346 0;
#X connect 134 0 135 0;
#X connect 135 0 215 0;
#X connect 136 0 347 0;
#X connect 137 0 138 0;
#X connect 138 0 216 0;
#X connect 139 0 348 0;
#X connect 140 0 141 0;
#X connect 141 0 217 0;
#X connect 142 0 350 0;
#X connect 143 0 127 0;
#X connect 144 0 130 0;
#X connect 145 0 133 0;
#X connect 146 0 136 0;
#X connect 147 0 139 0;
#X connect 148 0 142 0;
#X connect 149 0 150 0;
#X connect 150 0 218 0;
#X connect 151 0 349 0;
#X connect 152 0 153 0;
#X connect 153 0 219 0;
#X connect 154 0 351 0;
#X connect 155 0 156 0;
#X connect 156 0 220 0;
#X connect 157 0 352 0;
#X connect 158 0 159 0;
#X connect 159 0 221 0;
#X connect 160 0 353 0;
#X connect 161 0 162 0;
#X connect 162 0 222 0;
#X connect 163 0 354 0;
#X connect 164 0 165 0;
#X connect 165 0 223 0;
#X connect 166 0 355 0;
#X connect 167 0 168 0;
#X connect 168 0 224 0;
#X connect 169 0 356 0;
#X connect 170 0 171 0;
#X connect 171 0 225 0;
#X connect 172 0 357 0;
#X connect 173 0 151 0;
#X connect 174 0 154 0;
#X connect 175 0 157 0;
#X connect 176 0 160 0;
#X connect 177 0 163 0;
#X connect 178 0 166 0;
#X connect 179 0 169 0;
#X connect 180 0 172 0;
#X connect 181 0 99 0;
#X connect 182 0 97 0;
#X connect 183 0 184 0;
#X connect 185 0 309 0;
#X connect 226 0 228 0;
#X connect 227 0 228 1;
#X connect 228 0 286 0;
#X connect 229 0 286 1;
#X connect 230 0 287 1;
#X connect 231 0 288 1;
#X connect 232 0 289 1;
#X connect 233 0 290 1;
#X connect 234 0 291 1;
#X connect 235 0 292 1;
#X connect 236 0 293 1;
#X connect 237 0 294 1;
#X connect 238 0 295 1;
#X connect 239 0 296 1;
#X connect 240 0 297 1;
#X connect 241 0 298 1;
#X connect 242 0 299 1;
#X connect 243 0 300 1;
#X connect 244 0 301 1;
#X connect 245 0 302 1;
#X connect 246 0 304 1;
#X connect 247 0 303 1;
#X connect 248 0 229 0;
#X connect 249 0 229 1;
#X connect 250 0 230 0;
#X connect 251 0 230 1;
#X connect 252 0 231 0;
#X connect 253 0 231 1;
#X connect 254 0 232 0;
#X connect 255 0 232 1;
#X connect 256 0 233 0;
#X connect 257 0 233 1;
#X connect 258 0 234 0;
#X connect 259 0 234 1;
#X connect 260 0 235 0;
#X connect 261 0 235 1;
#X connect 262 0 236 0;
#X connect 263 0 236 1;
#X connect 264 0 237 0;
#X connect 265 0 237 1;
#X connect 266 0 238 0;
#X connect 267 0 238 1;
#X connect 268 0 239 0;
#X connect 269 0 239 1;
#X connect 270 0 240 0;
#X connect 271 0 240 1;
#X connect 272 0 241 0;
#X connect 273 0 241 1;
#X connect 274 0 242 0;
#X connect 275 0 242 1;
#X connect 276 0 243 0;
#X connect 277 0 243 1;
#X connect 278 0 244 0;
#X connect 279 0 244 1;
#X connect 280 0 245 0;
#X connect 281 0 245 1;
#X connect 282 0 246 0;
#X connect 283 0 246 1;
#X connect 284 0 247 0;
#X connect 285 0 247 1;
#X connect 286 0 287 0;
#X connect 287 0 288 0;
#X connect 288 0 289 0;
#X connect 289 0 290 0;
#X connect 290 0 291 0;
#X connect 291 0 292 0;
#X connect 292 0 293 0;
#X connect 293 0 294 0;
#X connect 294 0 295 0;
#X connect 295 0 296 0;
#X connect 296 0 297 0;
#X connect 297 0 298 0;
#X connect 298 0 299 0;
#X connect 299 0 300 0;
#X connect 300 0 301 0;
#X connect 301 0 302 0;
#X connect 302 0 304 0;
#X connect 303 0 183 0;
#X connect 304 0 303 0;
#X connect 305 0 103 0;
#X connect 305 0 122 0;
#X connect 305 0 180 0;
#X connect 305 0 179 0;
#X connect 305 0 178 0;
#X connect 305 0 177 0;
#X connect 305 0 176 0;
#X connect 305 0 175 0;
#X connect 305 0 174 0;
#X connect 305 0 173 0;
#X connect 305 0 148 0;
#X connect 305 0 147 0;
#X connect 305 0 146 0;
#X connect 305 0 145 0;
#X connect 305 0 144 0;
#X connect 305 0 143 0;
#X connect 305 0 124 0;
#X connect 305 0 123 0;
#X connect 305 0 121 0;
#X connect 305 0 120 0;
#X connect 306 0 337 0;
#X connect 307 0 11 0;
#X connect 307 0 30 0;
#X connect 307 0 88 0;
#X connect 307 0 87 0;
#X connect 307 0 86 0;
#X connect 307 0 85 0;
#X connect 307 0 84 0;
#X connect 307 0 83 0;
#X connect 307 0 82 0;
#X connect 307 0 81 0;
#X connect 307 0 56 0;
#X connect 307 0 55 0;
#X connect 307 0 54 0;
#X connect 307 0 53 0;
#X connect 307 0 52 0;
#X connect 307 0 51 0;
#X connect 307 0 32 0;
#X connect 307 0 31 0;
#X connect 307 0 29 0;
#X connect 307 0 28 0;
#X connect 308 0 316 0;
#X connect 309 0 92 0;
#X connect 310 0 309 1;
#X connect 310 0 311 0;
#X connect 312 0 313 0;
#X connect 313 0 310 0;
#X connect 314 0 96 0;
#X connect 315 0 316 0;
#X connect 317 0 9 0;
#X connect 318 0 13 0;
#X connect 319 0 16 0;
#X connect 320 0 19 0;
#X connect 321 0 22 0;
#X connect 322 0 25 0;
#X connect 323 0 33 0;
#X connect 324 0 36 0;
#X connect 325 0 39 0;
#X connect 326 0 42 0;
#X connect 327 0 45 0;
#X connect 328 0 48 0;
#X connect 329 0 57 0;
#X connect 330 0 60 0;
#X connect 331 0 63 0;
#X connect 332 0 66 0;
#X connect 333 0 69 0;
#X connect 334 0 72 0;
#X connect 335 0 75 0;
#X connect 336 0 78 0;
#X connect 338 0 101 0;
#X connect 339 0 105 0;
#X connect 340 0 108 0;
#X connect 341 0 111 0;
#X connect 342 0 114 0;
#X connect 343 0 117 0;
#X connect 344 0 125 0;
#X connect 345 0 128 0;
#X connect 346 0 131 0;
#X connect 347 0 134 0;
#X connect 348 0 137 0;
#X connect 349 0 149 0;
#X connect 350 0 140 0;
#X connect 351 0 152 0;
#X connect 352 0 155 0;
#X connect 353 0 158 0;
#X connect 354 0 161 0;
#X connect 355 0 164 0;
#X connect 356 0 167 0;
#X connect 357 0 170 0;
