#N canvas 792 361 724 585 12;
#X obj 237 252 phasor~;
#X obj 236 223 mtof;
#X obj 240 375 *~;
#X obj 329 257 bng 15 250 50 0 empty empty empty 17 7 0 10 #fcfcfc
#000000 #000000;
#X floatatom 352 257 5 0 0 0 - - - 0;
#X floatatom 375 281 5 0 0 0 - - - 0;
#X floatatom 419 282 5 0 0 0 - - - 0;
#X floatatom 441 308 5 0 0 0 - - - 0;
#X obj 331 355 VCA_chris;
#X obj 105 57 inlet;
#X obj 158 57 inlet;
#X obj 212 57 inlet;
#X obj 265 57 inlet;
#X obj 320 58 inlet;
#X obj 373 58 inlet;
#X obj 244 452 outlet~;
#X connect 0 0 2 0;
#X connect 1 0 0 0;
#X connect 2 0 15 0;
#X connect 3 0 8 0;
#X connect 4 0 8 1;
#X connect 5 0 8 2;
#X connect 6 0 8 4;
#X connect 7 0 8 4;
#X connect 8 0 2 1;
#X connect 9 0 1 0;
#X connect 10 0 3 0;
#X connect 11 0 5 0;
#X connect 12 0 8 3;
#X connect 13 0 6 0;
#X connect 14 0 7 0;
