#N canvas 1272 303 1027 649 12;
#X obj 297 50 vsl 15 128 -2 2 0 0 empty empty empty 0 -9 0 10 #fcfcfc
#000000 #000000 0 1;
#X floatatom 297 184 5 0 0 0 - - - 0;
#X obj 349 81 vsl 15 128 -2 2 0 0 empty empty empty 0 -9 0 10 #fcfcfc
#000000 #000000 0 1;
#X floatatom 349 217 5 0 0 0 - - - 0;
#X obj 245 353 outlet;
#X obj 429 73 loadbang;
#X obj 245 185 inlet;
#X obj 245 265 *, f 4;
#X obj 245 301 +;
#X msg 429 99 0.1;
#X obj 477 198 inlet;
#X text 523 198 error (update);
#X floatatom 603 348 5 0 0 0 - - - 0;
#X floatatom 383 382 5 0 0 0 - - - 0;
#X obj 518 267 bng 15 250 50 0 empty empty empty 17 7 0 10 #fcfcfc
#000000 #000000;
#X obj 484 341 -1;
#X obj 474 439 *;
#X obj 696 266 bng 15 250 50 0 empty empty empty 17 7 0 10 #fcfcfc
#000000 #000000;
#X obj 682 340 -1;
#X obj 652 438 *;
#X floatatom 454 551 5 0 0 0 - - - 0;
#X floatatom 594 545 5 0 0 0 - - - 0;
#X obj 446 594 send UpdateWeight;
#X obj 616 592 send UpdateBias;
#X obj 164 11 receive UpdateWeight;
#X obj 328 20 receive UpdateBias;
#X floatatom 664 481 5 0 0 0 - - - 0;
#X obj 405 272 float;
#X obj 593 273 float;
#X obj 596 485 +;
#X obj 444 486 +;
#X floatatom 146 301 10 0 0 0 - - - 0;
#X obj 245 325 tanh;
#X connect 0 0 1 0;
#X connect 1 0 7 1;
#X connect 1 0 27 1;
#X connect 2 0 3 0;
#X connect 3 0 8 1;
#X connect 3 0 28 1;
#X connect 5 0 9 0;
#X connect 6 0 7 0;
#X connect 7 0 8 0;
#X connect 7 0 31 0;
#X connect 8 0 32 0;
#X connect 9 0 2 0;
#X connect 9 0 0 0;
#X connect 10 0 16 0;
#X connect 10 0 19 0;
#X connect 10 0 14 0;
#X connect 10 0 17 0;
#X connect 12 0 29 0;
#X connect 13 0 30 0;
#X connect 14 0 15 0;
#X connect 14 0 27 0;
#X connect 15 0 16 1;
#X connect 16 0 30 1;
#X connect 17 0 18 0;
#X connect 17 0 12 0;
#X connect 17 0 28 0;
#X connect 18 0 19 1;
#X connect 19 0 26 0;
#X connect 19 0 29 1;
#X connect 20 0 22 0;
#X connect 21 0 23 0;
#X connect 24 0 1 0;
#X connect 25 0 3 0;
#X connect 27 0 13 0;
#X connect 28 0 12 0;
#X connect 29 0 21 0;
#X connect 30 0 20 0;
#X connect 32 0 4 0;
