#N canvas 150 175 2130 1093 12;
#X obj 417 420 FFTsumLOSS;
#N canvas 185 42 1706 1329 NeuralNetwork 0;
#X obj 2393 85 inlet;
#X text 2443 29 error;
#X obj 2422 132 *;
#X obj 2440 85 loadbang;
#X obj 2422 157 send UpdateError;
#X obj 2061 244 receive UpdateError;
#X floatatom 2368 171 5 0 0 0 - - - 0;
#X floatatom 568 673 5 0 0 0 - - - 0;
#X obj 557 289 neuron;
#X obj 680 289 neuron;
#X obj 802 289 neuron;
#X obj 925 289 neuron;
#X obj 1048 289 neuron;
#X obj 1171 289 neuron;
#X obj 1293 289 neuron;
#X obj 1416 289 neuron;
#X obj 1536 289 neuron;
#X obj 1659 289 neuron;
#X obj 987 24 inlet;
#X obj 1031 24 inlet;
#X obj 1074 24 inlet;
#X obj 1118 24 inlet;
#X obj 1162 24 inlet;
#X obj 1206 24 inlet;
#X obj 1249 24 inlet;
#X obj 1293 24 inlet;
#X obj 822 382 sum4, f 11;
#X obj 909 382 sum4, f 11;
#X obj 996 382 sum4, f 11;
#X obj 1083 382 sum4, f 11;
#X obj 1171 383 sum4, f 11;
#X obj 1258 383 sum4, f 11;
#X obj 1345 383 sum4, f 11;
#X obj 822 466 neuron;
#X obj 909 467 neuron;
#X obj 996 467 neuron;
#X obj 1083 468 neuron;
#X obj 1170 469 neuron;
#X obj 1257 470 neuron;
#X obj 1344 470 neuron;
#X obj 677 577 sum8, f 13;
#X obj 780 577 sum8, f 13;
#X obj 883 577 sum8, f 13;
#X obj 986 577 sum8, f 13;
#X obj 1087 577 sum8, f 13;
#X obj 1190 577 sum8, f 13;
#X obj 1291 577 sum8, f 13;
#X obj 1394 577 sum8, f 13;
#X obj 1497 577 sum8, f 13;
#X obj 678 632 neuron;
#X obj 779 632 neuron;
#X obj 881 632 neuron;
#X obj 982 632 neuron;
#X obj 1084 632 neuron;
#X obj 1185 632 neuron;
#X obj 1287 632 neuron;
#X obj 1388 632 neuron;
#X obj 1498 632 neuron;
#X obj 1945 400 receive UpdateError;
#X obj 1884 592 receive UpdateError;
#X obj 707 732 sum4, f 12;
#X obj 817 733 sum4, f 12;
#X obj 924 734 sum4, f 12;
#X obj 1025 734 sum4, f 12;
#X obj 1135 735 sum4, f 12;
#X obj 1242 736 sum4, f 12;
#X obj 1351 738 sum4, f 12;
#X obj 1461 739 sum4, f 12;
#X obj 706 784 neuron;
#X obj 816 786 neuron;
#X obj 923 783 neuron;
#X obj 1033 785 neuron;
#X obj 1141 787 neuron;
#X obj 1251 789 neuron;
#X obj 1358 786 neuron;
#X obj 1468 788 neuron;
#X obj 706 808 outlet;
#X obj 816 810 outlet;
#X obj 923 807 outlet;
#X obj 1033 809 outlet;
#X obj 1141 811 outlet;
#X obj 1251 813 outlet;
#X obj 1358 810 outlet;
#X obj 1468 812 outlet;
#X obj 1517 137 sum4, f 6;
#X obj 1571 137 sum4, f 6;
#X msg 2440 108 1e-09;
#X connect 0 0 2 0;
#X connect 2 0 4 0;
#X connect 2 0 6 0;
#X connect 3 0 86 0;
#X connect 5 0 17 1;
#X connect 5 0 16 1;
#X connect 5 0 15 1;
#X connect 5 0 14 1;
#X connect 5 0 13 1;
#X connect 5 0 12 1;
#X connect 5 0 11 1;
#X connect 5 0 10 1;
#X connect 5 0 9 1;
#X connect 5 0 8 1;
#X connect 8 0 26 0;
#X connect 9 0 26 1;
#X connect 9 0 27 0;
#X connect 10 0 26 2;
#X connect 10 0 27 1;
#X connect 10 0 28 0;
#X connect 11 0 26 3;
#X connect 11 0 27 2;
#X connect 11 0 28 1;
#X connect 11 0 29 0;
#X connect 12 0 27 3;
#X connect 12 0 28 2;
#X connect 12 0 29 1;
#X connect 12 0 30 0;
#X connect 13 0 28 3;
#X connect 13 0 29 2;
#X connect 13 0 30 1;
#X connect 13 0 31 0;
#X connect 14 0 29 3;
#X connect 14 0 30 2;
#X connect 14 0 31 1;
#X connect 14 0 32 0;
#X connect 15 0 30 3;
#X connect 15 0 31 2;
#X connect 15 0 32 1;
#X connect 16 0 31 3;
#X connect 16 0 32 2;
#X connect 17 0 32 3;
#X connect 18 0 8 0;
#X connect 19 0 9 0;
#X connect 20 0 10 0;
#X connect 21 0 11 0;
#X connect 22 0 12 0;
#X connect 23 0 13 0;
#X connect 23 0 84 0;
#X connect 24 0 14 0;
#X connect 24 0 84 1;
#X connect 24 0 85 0;
#X connect 25 0 15 0;
#X connect 25 0 85 1;
#X connect 26 0 33 0;
#X connect 27 0 34 0;
#X connect 28 0 35 0;
#X connect 29 0 36 0;
#X connect 30 0 37 0;
#X connect 31 0 38 0;
#X connect 32 0 39 0;
#X connect 33 0 40 0;
#X connect 33 0 48 0;
#X connect 33 0 47 0;
#X connect 33 0 46 0;
#X connect 33 0 45 0;
#X connect 33 0 44 0;
#X connect 33 0 43 0;
#X connect 33 0 42 0;
#X connect 33 0 41 0;
#X connect 34 0 40 1;
#X connect 34 0 48 1;
#X connect 34 0 47 1;
#X connect 34 0 46 1;
#X connect 34 0 45 1;
#X connect 34 0 44 1;
#X connect 34 0 43 1;
#X connect 34 0 42 1;
#X connect 34 0 41 1;
#X connect 35 0 40 2;
#X connect 35 0 48 2;
#X connect 35 0 47 2;
#X connect 35 0 46 2;
#X connect 35 0 45 2;
#X connect 35 0 44 2;
#X connect 35 0 43 2;
#X connect 35 0 42 2;
#X connect 35 0 41 2;
#X connect 36 0 40 3;
#X connect 36 0 48 3;
#X connect 36 0 47 3;
#X connect 36 0 46 3;
#X connect 36 0 45 3;
#X connect 36 0 44 3;
#X connect 36 0 43 3;
#X connect 36 0 42 3;
#X connect 36 0 41 3;
#X connect 37 0 41 4;
#X connect 37 0 48 4;
#X connect 37 0 47 4;
#X connect 37 0 46 4;
#X connect 37 0 45 4;
#X connect 37 0 44 4;
#X connect 37 0 43 4;
#X connect 37 0 42 4;
#X connect 37 0 40 4;
#X connect 38 0 45 4;
#X connect 38 0 48 4;
#X connect 38 0 47 4;
#X connect 38 0 46 4;
#X connect 38 0 44 4;
#X connect 38 0 43 4;
#X connect 38 0 42 4;
#X connect 38 0 41 4;
#X connect 38 0 40 4;
#X connect 39 0 45 5;
#X connect 39 0 48 5;
#X connect 39 0 47 5;
#X connect 39 0 46 5;
#X connect 39 0 44 5;
#X connect 39 0 43 5;
#X connect 39 0 42 5;
#X connect 39 0 41 5;
#X connect 39 0 40 5;
#X connect 40 0 49 0;
#X connect 41 0 50 0;
#X connect 42 0 51 0;
#X connect 43 0 52 0;
#X connect 44 0 53 0;
#X connect 45 0 54 0;
#X connect 46 0 55 0;
#X connect 47 0 56 0;
#X connect 48 0 57 0;
#X connect 49 0 7 0;
#X connect 49 0 60 0;
#X connect 49 0 66 3;
#X connect 49 0 67 2;
#X connect 50 0 60 1;
#X connect 50 0 61 0;
#X connect 50 0 67 3;
#X connect 51 0 60 2;
#X connect 51 0 61 1;
#X connect 51 0 62 0;
#X connect 52 0 60 3;
#X connect 52 0 61 2;
#X connect 52 0 62 1;
#X connect 52 0 63 0;
#X connect 53 0 61 3;
#X connect 53 0 62 2;
#X connect 53 0 63 1;
#X connect 53 0 64 0;
#X connect 54 0 62 3;
#X connect 54 0 63 2;
#X connect 54 0 64 1;
#X connect 54 0 65 0;
#X connect 55 0 63 3;
#X connect 55 0 64 2;
#X connect 55 0 65 1;
#X connect 55 0 66 0;
#X connect 56 0 64 3;
#X connect 56 0 65 2;
#X connect 56 0 66 1;
#X connect 56 0 67 0;
#X connect 57 0 65 3;
#X connect 57 0 66 2;
#X connect 57 0 67 1;
#X connect 58 0 39 1;
#X connect 58 0 38 1;
#X connect 58 0 37 1;
#X connect 58 0 36 1;
#X connect 58 0 35 1;
#X connect 58 0 34 1;
#X connect 58 0 33 1;
#X connect 59 0 55 1;
#X connect 59 0 57 1;
#X connect 59 0 56 1;
#X connect 59 0 54 1;
#X connect 59 0 53 1;
#X connect 59 0 52 1;
#X connect 59 0 51 1;
#X connect 59 0 50 1;
#X connect 59 0 49 1;
#X connect 60 0 68 0;
#X connect 61 0 69 0;
#X connect 62 0 70 0;
#X connect 63 0 71 0;
#X connect 64 0 72 0;
#X connect 65 0 73 0;
#X connect 66 0 74 0;
#X connect 67 0 75 0;
#X connect 68 0 76 0;
#X connect 69 0 77 0;
#X connect 70 0 78 0;
#X connect 71 0 79 0;
#X connect 72 0 80 0;
#X connect 73 0 81 0;
#X connect 74 0 82 0;
#X connect 75 0 83 0;
#X connect 84 0 16 0;
#X connect 85 0 17 0;
#X connect 86 0 2 1;
#X restore 505 292 pd NeuralNetwork;
#X f 27;
#X obj 484 391 simpleAdditiveSynth;
#X obj 627 359 pack f f f f f f f f;
#X obj 691 261 receive NeuralNetworkLoss;
#N canvas 686 262 1413 694 SaxFFT 0;
#X obj 400 134 inlet~;
#X obj 400 202 rfft~;
#X obj 400 236 *~;
#X obj 434 237 *~;
#X obj 400 270 sqrt~;
#X obj 400 304 tabwrite~ FFT;
#X obj 664 296 tgl 15 0 empty empty empty 17 7 0 10 #fcfcfc #000000
#000000 0 1;
#X obj 250 496 metro 100;
#X obj 324 519 snapshot~;
#X floatatom 324 549 5 0 0 0 - - - 0;
#X msg 324 429 1;
#X obj 324 459 sig~;
#X obj 428 517 snapshot~;
#X floatatom 428 547 5 0 0 0 - - - 0;
#X obj 428 457 sig~;
#X obj 531 517 snapshot~;
#X floatatom 531 547 5 0 0 0 - - - 0;
#X obj 531 457 sig~;
#X obj 632 518 snapshot~;
#X floatatom 632 548 5 0 0 0 - - - 0;
#X obj 632 458 sig~;
#X obj 736 516 snapshot~;
#X floatatom 736 546 5 0 0 0 - - - 0;
#X obj 736 456 sig~;
#X obj 839 516 snapshot~;
#X floatatom 839 546 5 0 0 0 - - - 0;
#X obj 839 456 sig~;
#X msg 428 427 2;
#X msg 531 427 3;
#X msg 632 428 4;
#X msg 736 426 5;
#X msg 839 426 6;
#X obj 941 515 snapshot~;
#X floatatom 941 545 5 0 0 0 - - - 0;
#X obj 941 455 sig~;
#X obj 1045 513 snapshot~;
#X floatatom 1045 543 5 0 0 0 - - - 0;
#X obj 1045 453 sig~;
#X msg 941 425 7;
#X msg 1045 423 8;
#X obj 664 266 loadbang;
#X obj 665 328 metro 400;
#X obj 324 489 tabread~ FFT;
#X obj 428 487 tabread~ FFT;
#X obj 531 487 tabread~ FFT;
#X obj 632 488 tabread~ FFT;
#X obj 736 486 tabread~ FFT;
#X obj 839 486 tabread~ FFT;
#X obj 941 485 tabread~ FFT;
#X obj 1046 483 tabread~ FFT;
#X obj 324 596 outlet;
#X obj 428 594 outlet;
#X obj 531 594 outlet;
#X obj 632 595 outlet;
#X obj 736 593 outlet;
#X obj 839 593 outlet;
#X obj 941 592 outlet;
#X obj 1045 590 outlet;
#X obj 400 168 hip~ 100;
#N canvas 0 22 450 278 (subpatch) 0;
#X array FFT 64 float 3;
#A 0 0 0 0 0 0 0 0 0 0 0 0 0 0 0 0 0 0 0 0 0 0 0 0 0 0 0 0 0 0 0 0
0 0 0 0 0 0 0 0 0 0 0 0 0 0 0 0 0 0 0 0 0 0 0 0 0 0 0 0 0 0 0 0 0;
#X coords 0 1 64 -1 200 140 1;
#X restore 842 93 graph;
#X connect 0 0 58 0;
#X connect 1 0 2 0;
#X connect 1 0 2 1;
#X connect 1 1 3 0;
#X connect 1 1 3 1;
#X connect 2 0 4 0;
#X connect 3 0 4 0;
#X connect 4 0 5 0;
#X connect 6 0 7 0;
#X connect 6 0 41 0;
#X connect 7 0 8 0;
#X connect 7 0 12 0;
#X connect 7 0 35 0;
#X connect 7 0 32 0;
#X connect 7 0 24 0;
#X connect 7 0 21 0;
#X connect 7 0 18 0;
#X connect 7 0 15 0;
#X connect 8 0 9 0;
#X connect 9 0 50 0;
#X connect 10 0 11 0;
#X connect 11 0 42 0;
#X connect 12 0 13 0;
#X connect 13 0 51 0;
#X connect 14 0 43 0;
#X connect 15 0 16 0;
#X connect 16 0 52 0;
#X connect 17 0 44 0;
#X connect 18 0 19 0;
#X connect 19 0 53 0;
#X connect 20 0 45 0;
#X connect 21 0 22 0;
#X connect 22 0 54 0;
#X connect 23 0 46 0;
#X connect 24 0 25 0;
#X connect 25 0 55 0;
#X connect 26 0 47 0;
#X connect 27 0 14 0;
#X connect 28 0 17 0;
#X connect 29 0 20 0;
#X connect 30 0 23 0;
#X connect 31 0 26 0;
#X connect 32 0 33 0;
#X connect 33 0 56 0;
#X connect 34 0 48 0;
#X connect 35 0 36 0;
#X connect 36 0 57 0;
#X connect 37 0 49 0;
#X connect 38 0 34 0;
#X connect 39 0 37 0;
#X connect 40 0 6 0;
#X connect 41 0 10 0;
#X connect 41 0 29 0;
#X connect 41 0 39 0;
#X connect 41 0 38 0;
#X connect 41 0 31 0;
#X connect 41 0 30 0;
#X connect 41 0 28 0;
#X connect 41 0 27 0;
#X connect 41 0 5 0;
#X connect 42 0 8 0;
#X connect 43 0 12 0;
#X connect 44 0 15 0;
#X connect 45 0 18 0;
#X connect 46 0 21 0;
#X connect 47 0 24 0;
#X connect 48 0 32 0;
#X connect 49 0 35 0;
#X connect 58 0 1 0;
#X restore 452 205 pd SaxFFT;
#X f 22;
#X listbox 637 398 59 0 0 0 - - - 0;
#X floatatom 349 386 5 0 0 0 - - - 0;
#X obj 349 409 int;
#X floatatom 349 433 5 0 0 0 - - - 0;
#X floatatom 417 452 5 0 0 0 - - - 0;
#X obj 475 441 receive MidiNoteFromSax;
#X obj 438 485 +;
#X obj 438 509 send NeuralNetworkLoss;
#N canvas 307 272 1291 606 scaler 0;
#X obj 347 52 inlet;
#X obj 391 52 inlet;
#X obj 436 52 inlet;
#X obj 480 52 inlet;
#X obj 523 52 inlet;
#X obj 567 52 inlet;
#X obj 612 52 inlet;
#X obj 656 52 inlet;
#X obj 251 212 outlet;
#X obj 377 212 outlet;
#X obj 503 212 outlet;
#X obj 629 212 outlet;
#X obj 756 213 outlet;
#X obj 882 213 outlet;
#X obj 1008 213 outlet;
#X obj 1134 213 outlet;
#X obj -42 158 cyclone/scale -1 1 0 1;
#X obj 121 159 cyclone/scale -1 1 0 1;
#X obj 283 159 cyclone/scale -1 1 0 1;
#X obj 446 160 cyclone/scale -1 1 0 1;
#X obj 608 162 cyclone/scale -1 1 0 1;
#X obj 773 164 cyclone/scale -1 1 0 1;
#X obj 937 164 cyclone/scale -1 1 0 1;
#X obj 1102 164 cyclone/scale -1 1 0 1;
#X connect 0 0 16 0;
#X connect 1 0 17 0;
#X connect 2 0 18 0;
#X connect 3 0 19 0;
#X connect 4 0 20 0;
#X connect 5 0 21 0;
#X connect 6 0 22 0;
#X connect 7 0 23 0;
#X connect 16 0 8 0;
#X connect 17 0 9 0;
#X connect 18 0 10 0;
#X connect 19 0 11 0;
#X connect 20 0 12 0;
#X connect 21 0 13 0;
#X connect 22 0 14 0;
#X connect 23 0 15 0;
#X restore 626 325 pd scaler;
#X f 19;
#X obj 475 465 -;
#X obj 105 122 inlet~;
#X obj 279 102 inlet;
#X obj 435 358 cyclone/scale 0 0.8 40 90;
#X obj 336 480 speedlim 1000;
#X obj 422 95 inlet;
#X obj 518 93 inlet;
#X obj 669 84 inlet;
#X obj 770 144 inlet;
#X obj 118 629 outlet~;
#X obj 451 626 outlet;
#X connect 0 0 10 0;
#X connect 1 0 14 0;
#X connect 1 0 18 0;
#X connect 1 1 14 1;
#X connect 1 2 14 2;
#X connect 1 3 14 3;
#X connect 1 4 14 4;
#X connect 1 5 14 5;
#X connect 1 6 14 6;
#X connect 1 7 14 7;
#X connect 2 0 0 1;
#X connect 2 0 24 0;
#X connect 3 0 2 1;
#X connect 3 0 6 0;
#X connect 4 0 1 8;
#X connect 5 0 1 0;
#X connect 5 1 1 1;
#X connect 5 2 1 2;
#X connect 5 3 1 3;
#X connect 5 4 1 4;
#X connect 5 5 1 5;
#X connect 5 6 1 6;
#X connect 5 7 1 7;
#X connect 7 0 8 0;
#X connect 8 0 9 0;
#X connect 9 0 15 1;
#X connect 9 0 19 0;
#X connect 9 0 25 0;
#X connect 10 0 12 0;
#X connect 11 0 15 0;
#X connect 12 0 13 0;
#X connect 14 0 3 0;
#X connect 14 1 3 1;
#X connect 14 2 3 2;
#X connect 14 3 3 3;
#X connect 14 4 3 4;
#X connect 14 5 3 5;
#X connect 14 6 3 6;
#X connect 14 7 3 7;
#X connect 15 0 12 1;
#X connect 16 0 5 0;
#X connect 16 0 0 0;
#X connect 17 0 19 1;
#X connect 18 0 7 0;
#X connect 19 0 2 0;
#X connect 20 0 18 1;
#X connect 21 0 18 2;
#X connect 22 0 18 3;
#X connect 23 0 18 4;
