#N canvas 324 349 2126 581 12;
#X obj 357 116 inlet;
#X obj 405 116 inlet;
#X obj 455 116 inlet;
#X obj 346 173 neuron;
#X obj 402 174 neuron;
#X obj 459 175 neuron;
#X obj 307 247 neuron;
#X obj 363 248 neuron;
#X obj 420 249 neuron;
#X obj 477 247 neuron;
#X obj 533 248 neuron;
#X obj 590 249 neuron;
#X obj 306 313 neuron;
#X obj 362 314 neuron;
#X obj 419 315 neuron;
#X obj 476 313 neuron;
#X obj 532 314 neuron;
#X obj 589 315 neuron;
#X obj 271 280 sum4, f 8;
#X obj 384 395 neuron;
#X obj 512 394 sum4, f 6;
#X obj 464 455 +;
#X obj 979 100 inlet;
#X text 1029 44 error;
#X obj 1008 147 *;
#X obj 1026 100 loadbang;
#X obj 1008 172 send UpdateError;
#X floatatom 954 186 5 0 0 0 - - - 0;
#X obj 686 140 receive UpdateError;
#X obj 705 207 receive UpdateError;
#X obj 719 271 receive UpdateError;
#X obj 464 479 outlet;
#X msg 1026 123 1e-06;
#X connect 0 0 3 0;
#X connect 1 0 4 0;
#X connect 2 0 5 0;
#X connect 3 0 6 0;
#X connect 3 0 7 0;
#X connect 4 0 8 0;
#X connect 4 0 9 0;
#X connect 5 0 10 0;
#X connect 5 0 11 0;
#X connect 6 0 12 0;
#X connect 7 0 13 0;
#X connect 7 0 14 0;
#X connect 8 0 18 0;
#X connect 9 0 16 0;
#X connect 10 0 18 1;
#X connect 11 0 17 0;
#X connect 12 0 18 2;
#X connect 13 0 19 0;
#X connect 14 0 20 0;
#X connect 15 0 20 1;
#X connect 16 0 20 2;
#X connect 17 0 20 3;
#X connect 18 0 15 0;
#X connect 19 0 21 0;
#X connect 20 0 21 1;
#X connect 21 0 31 0;
#X connect 22 0 24 0;
#X connect 24 0 26 0;
#X connect 24 0 27 0;
#X connect 25 0 32 0;
#X connect 28 0 5 1;
#X connect 28 0 4 1;
#X connect 28 0 3 1;
#X connect 29 0 11 1;
#X connect 29 0 10 1;
#X connect 29 0 9 1;
#X connect 29 0 8 1;
#X connect 29 0 7 1;
#X connect 29 0 6 1;
#X connect 30 0 17 1;
#X connect 30 0 16 1;
#X connect 30 0 15 1;
#X connect 30 0 14 1;
#X connect 30 0 13 1;
#X connect 30 0 12 1;
#X connect 32 0 24 1;
