#N canvas 0 25 2560 1329 12;
#X obj 87 25 ctlin;
#X floatatom 87 63 5 0 0 0 - - - 0;
#X floatatom 131 64 5 0 0 0 - - - 0;
#X floatatom 176 65 5 0 0 0 - - - 0;
#X obj 88 92 select 127;
#X obj 88 124 change;
#X obj 88 156 bng 15 250 50 0 empty empty empty 17 7 0 10 #fcfcfc #000000
#000000;
#X obj 87 256 == 1;
#X obj 87 224 1;
#X obj 167 125 change;
#X obj 167 150 bng 15 250 50 0 empty empty empty 17 7 0 10 #fcfcfc
#000000 #000000;
#X obj 166 257 == 1;
#X obj 167 93 select 42;
#X obj 122 290 +;
#X obj 122 317 == 2;
#X obj 122 342 select 1;
#X obj 224 201 0;
#X obj 123 374 bng 15 250 50 0 empty empty empty 17 7 0 10 #fcfcfc
#000000 #000000;
#X floatatom 69 341 5 0 0 0 - - - 0;
#X floatatom 43 291 5 0 0 0 - - - 0;
#X floatatom 203 295 5 0 0 0 - - - 0;
#X obj 224 126 1;
#X floatatom 166 229 5 0 0 0 - - - 0;
#X obj 224 155 bng 15 250 50 0 empty empty empty 17 7 0 10 #fcfcfc
#000000 #000000;
#X obj 224 175 delay 10;
#X obj 313 125 change;
#X obj 313 150 bng 15 250 50 0 empty empty empty 17 7 0 10 #fcfcfc
#000000 #000000;
#X obj 312 257 == 1;
#X obj 370 201 0;
#X floatatom 349 295 5 0 0 0 - - - 0;
#X obj 370 126 1;
#X floatatom 312 229 5 0 0 0 - - - 0;
#X obj 370 155 bng 15 250 50 0 empty empty empty 17 7 0 10 #fcfcfc
#000000 #000000;
#X obj 370 175 delay 10;
#X obj 313 93 select 41;
#X obj 263 294 +;
#X obj 263 321 == 2;
#X obj 263 346 select 1;
#X obj 264 374 bng 15 250 50 0 empty empty empty 17 7 0 10 #fcfcfc
#000000 #000000;
#X floatatom 210 345 5 0 0 0 - - - 0;
#X text 140 373 STOP;
#X text 280 373 PLAY;
#X obj 465 126 change;
#X obj 465 151 bng 15 250 50 0 empty empty empty 17 7 0 10 #fcfcfc
#000000 #000000;
#X obj 464 258 == 1;
#X obj 522 202 0;
#X floatatom 501 296 5 0 0 0 - - - 0;
#X obj 522 127 1;
#X floatatom 464 230 5 0 0 0 - - - 0;
#X obj 522 156 bng 15 250 50 0 empty empty empty 17 7 0 10 #fcfcfc
#000000 #000000;
#X obj 522 176 delay 10;
#X obj 415 295 +;
#X obj 415 322 == 2;
#X obj 415 347 select 1;
#X obj 416 374 bng 15 250 50 0 empty empty empty 17 7 0 10 #fcfcfc
#000000 #000000;
#X floatatom 362 346 5 0 0 0 - - - 0;
#X obj 614 128 change;
#X obj 614 153 bng 15 250 50 0 empty empty empty 17 7 0 10 #fcfcfc
#000000 #000000;
#X obj 613 260 == 1;
#X obj 671 204 0;
#X floatatom 650 298 5 0 0 0 - - - 0;
#X obj 671 129 1;
#X floatatom 613 232 5 0 0 0 - - - 0;
#X obj 671 158 bng 15 250 50 0 empty empty empty 17 7 0 10 #fcfcfc
#000000 #000000;
#X obj 671 178 delay 10;
#X obj 564 297 +;
#X obj 564 324 == 2;
#X obj 564 349 select 1;
#X obj 565 374 bng 15 250 50 0 empty empty empty 17 7 0 10 #fcfcfc
#000000 #000000;
#X floatatom 511 348 5 0 0 0 - - - 0;
#X text 432 373 PREV;
#X text 581 373 NEXT;
#X floatatom 99 757 5 0 0 0 - - - 0;
#N canvas 914 204 787 702 GenCMaj1 0;
#X obj 83 18 loadbang;
#X obj 83 42 tgl 15 0 empty empty empty 17 7 0 10 #fcfcfc #000000 #000000
0 1;
#X obj 83 120 select 0;
#X obj 170 120 select 1;
#X obj 259 120 select 2;
#X obj 348 120 select 3;
#X obj 440 120 select 4;
#X obj 529 120 select 5;
#X obj 618 120 select 6;
#X floatatom 30 117 5 0 0 0 - - - 0;
#X obj 83 89 random 7;
#X obj 100 189 bng 15 250 50 0 empty empty empty 17 7 0 10 #fcfcfc
#000000 #000000;
#X obj 83 66 metro 1000;
#X floatatom 82 325 5 0 0 0 - - - 0;
#X obj 169 157 2;
#X obj 259 158 4;
#X obj 347 159 5;
#X obj 440 159 7;
#X obj 529 161 9;
#X obj 618 162 11;
#X obj 83 156 0;
#X obj 100 256 * 12;
#X obj 82 293 +;
#X obj 187 186 bng 15 250 50 0 empty empty empty 17 7 0 10 #fcfcfc
#000000 #000000;
#X floatatom 169 325 5 0 0 0 - - - 0;
#X obj 187 253 * 12;
#X obj 169 293 +;
#X obj 277 189 bng 15 250 50 0 empty empty empty 17 7 0 10 #fcfcfc
#000000 #000000;
#X floatatom 259 325 5 0 0 0 - - - 0;
#X obj 277 256 * 12;
#X obj 259 293 +;
#X obj 365 186 bng 15 250 50 0 empty empty empty 17 7 0 10 #fcfcfc
#000000 #000000;
#X floatatom 347 325 5 0 0 0 - - - 0;
#X obj 365 253 * 12;
#X obj 347 293 +;
#X obj 458 186 bng 15 250 50 0 empty empty empty 17 7 0 10 #fcfcfc
#000000 #000000;
#X floatatom 440 325 5 0 0 0 - - - 0;
#X obj 458 253 * 12;
#X obj 440 293 +;
#X obj 547 189 bng 15 250 50 0 empty empty empty 17 7 0 10 #fcfcfc
#000000 #000000;
#X floatatom 529 325 5 0 0 0 - - - 0;
#X obj 547 256 * 12;
#X obj 529 293 +;
#X obj 636 186 bng 15 250 50 0 empty empty empty 17 7 0 10 #fcfcfc
#000000 #000000;
#X floatatom 618 325 5 0 0 0 - - - 0;
#X obj 636 253 * 12;
#X obj 618 293 +;
#X obj 262 428 change;
#X obj 262 468 outlet;
#X obj 150 18 inlet;
#X obj 100 232 f;
#X obj 187 229 f;
#X obj 277 232 f;
#X obj 365 229 f;
#X obj 458 229 f;
#X obj 547 232 f;
#X obj 636 229 f;
#X obj 705 177 inlet;
#X connect 0 0 1 0;
#X connect 1 0 12 0;
#X connect 2 0 20 0;
#X connect 3 0 14 0;
#X connect 4 0 15 0;
#X connect 5 0 16 0;
#X connect 6 0 17 0;
#X connect 7 0 18 0;
#X connect 8 0 19 0;
#X connect 10 0 2 0;
#X connect 10 0 3 0;
#X connect 10 0 4 0;
#X connect 10 0 5 0;
#X connect 10 0 6 0;
#X connect 10 0 7 0;
#X connect 10 0 8 0;
#X connect 10 0 9 0;
#X connect 11 0 50 0;
#X connect 12 0 10 0;
#X connect 13 0 47 0;
#X connect 14 0 26 0;
#X connect 14 0 23 0;
#X connect 15 0 30 0;
#X connect 15 0 27 0;
#X connect 16 0 34 0;
#X connect 16 0 31 0;
#X connect 17 0 35 0;
#X connect 17 0 38 0;
#X connect 18 0 39 0;
#X connect 18 0 42 0;
#X connect 19 0 43 0;
#X connect 19 0 46 0;
#X connect 20 0 22 0;
#X connect 20 0 11 0;
#X connect 21 0 22 1;
#X connect 22 0 13 0;
#X connect 23 0 51 0;
#X connect 24 0 47 0;
#X connect 25 0 26 1;
#X connect 26 0 24 0;
#X connect 27 0 52 0;
#X connect 28 0 47 0;
#X connect 29 0 30 1;
#X connect 30 0 28 0;
#X connect 31 0 53 0;
#X connect 32 0 47 0;
#X connect 33 0 34 1;
#X connect 34 0 32 0;
#X connect 35 0 54 0;
#X connect 36 0 47 0;
#X connect 37 0 38 1;
#X connect 38 0 36 0;
#X connect 39 0 55 0;
#X connect 40 0 47 0;
#X connect 41 0 42 1;
#X connect 42 0 40 0;
#X connect 43 0 56 0;
#X connect 44 0 47 0;
#X connect 45 0 46 1;
#X connect 46 0 44 0;
#X connect 47 0 48 0;
#X connect 49 0 12 1;
#X connect 50 0 21 0;
#X connect 51 0 25 0;
#X connect 52 0 29 0;
#X connect 53 0 33 0;
#X connect 54 0 37 0;
#X connect 55 0 41 0;
#X connect 56 0 45 0;
#X connect 57 0 56 1;
#X connect 57 0 55 1;
#X connect 57 0 54 1;
#X connect 57 0 53 1;
#X connect 57 0 52 1;
#X connect 57 0 51 1;
#X connect 57 0 50 1;
#X restore 99 726 pd GenCMaj1;
#X obj 99 607 hradio 15 1 0 13 empty empty empty 0 -8 0 10 #fcfcfc
#000000 #000000 0;
#X floatatom 99 629 5 0 0 0 - - - 0;
#X obj 99 652 * 250;
#X obj 99 676 + 250;
#X floatatom 229 727 5 0 0 0 - - - 0;
#N canvas 1727 291 794 633 midiNoteGen1 0;
#X obj 160 255 pack 1 1 127;
#X obj 310 260 pack 1 1;
#X msg 160 313 midi_note \$1 \$2 \$3;
#X obj 246 116 inlet;
#X obj 293 156 bng 15 250 50 0 empty empty empty 17 7 0 10 #fcfcfc
#000000 #000000;
#X floatatom 246 154 5 0 0 0 - - - 0;
#X obj 161 205 delay 1;
#X listbox 14 313 20 0 0 0 - - - 0;
#X obj 363 229 f;
#X obj 453 115 inlet;
#X obj 363 201 delay;
#X obj 498 115 loadbang;
#X msg 498 142 1000;
#X floatatom 375 257 5 0 0 0 - - - 0;
#X listbox 450 314 20 0 0 0 - - - 0;
#X obj 160 356 outlet;
#X obj 311 358 outlet;
#X msg 311 313 midi_noteoff \$1 \$2;
#X connect 0 0 2 0;
#X connect 0 0 7 0;
#X connect 1 0 17 0;
#X connect 1 0 14 0;
#X connect 2 0 15 0;
#X connect 3 0 4 0;
#X connect 3 0 5 0;
#X connect 4 0 6 0;
#X connect 4 0 10 0;
#X connect 5 0 0 1;
#X connect 5 0 8 1;
#X connect 6 0 0 0;
#X connect 8 0 13 0;
#X connect 8 0 1 1;
#X connect 9 0 10 1;
#X connect 10 0 8 0;
#X connect 10 0 1 0;
#X connect 11 0 12 0;
#X connect 12 0 10 1;
#X connect 17 0 16 0;
#X restore 98 855 pd midiNoteGen1;
#X obj 173 696 hradio 15 1 0 10 empty empty empty 0 -8 0 10 #fcfcfc
#000000 #000000 0;
#X floatatom 187 727 5 0 0 0 - - - 0;
#X text 298 606 speed;
#X obj 1474 794 vstplugin~;
#X msg 1474 761 open -e DecentSampler.vst3;
#X obj 1474 732 loadbang;
#X text 1534 734 load NN4 DecentSampler;
#X floatatom 352 762 5 0 0 0 - - - 0;
#X obj 352 612 hradio 15 1 0 13 empty empty empty 0 -8 0 10 #fcfcfc
#000000 #000000 0;
#X floatatom 352 634 5 0 0 0 - - - 0;
#X obj 352 657 * 250;
#X obj 352 681 + 250;
#X floatatom 482 732 5 0 0 0 - - - 0;
#X obj 431 696 hradio 15 1 0 10 empty empty empty 0 -8 0 10 #fcfcfc
#000000 #000000 0;
#X floatatom 440 732 5 0 0 0 - - - 0;
#X text 551 611 speed;
#X floatatom 605 762 5 0 0 0 - - - 0;
#X obj 605 612 hradio 15 1 0 13 empty empty empty 0 -8 0 10 #fcfcfc
#000000 #000000 0;
#X floatatom 605 634 5 0 0 0 - - - 0;
#X obj 605 657 * 250;
#X obj 605 681 + 250;
#X floatatom 735 732 5 0 0 0 - - - 0;
#X obj 684 701 hradio 15 1 0 10 empty empty empty 0 -8 0 10 #fcfcfc
#000000 #000000 0;
#X floatatom 693 732 5 0 0 0 - - - 0;
#X text 736 679 octave;
#X text 804 611 speed;
#X floatatom 858 767 5 0 0 0 - - - 0;
#X obj 858 617 hradio 15 1 0 13 empty empty empty 0 -8 0 10 #fcfcfc
#000000 #000000 0;
#X floatatom 858 639 5 0 0 0 - - - 0;
#X obj 858 662 * 250;
#X obj 858 686 + 250;
#X floatatom 988 737 5 0 0 0 - - - 0;
#X obj 946 700 hradio 15 1 0 10 empty empty empty 0 -8 0 10 #fcfcfc
#000000 #000000 0;
#X floatatom 946 737 5 0 0 0 - - - 0;
#X text 1054 615 speed;
#X floatatom 96 1086 5 0 0 0 - - - 0;
#X obj 96 936 hradio 15 1 0 13 empty empty empty 0 -8 0 10 #fcfcfc
#000000 #000000 0;
#X floatatom 96 958 5 0 0 0 - - - 0;
#X obj 96 981 * 250;
#X obj 96 1005 + 250;
#X floatatom 226 1056 5 0 0 0 - - - 0;
#X obj 170 1025 hradio 15 1 0 10 empty empty empty 0 -8 0 10 #fcfcfc
#000000 #000000 0;
#X floatatom 184 1056 5 0 0 0 - - - 0;
#X text 295 935 speed;
#X floatatom 349 1091 5 0 0 0 - - - 0;
#X obj 349 941 hradio 15 1 0 13 empty empty empty 0 -8 0 10 #fcfcfc
#000000 #000000 0;
#X floatatom 349 963 5 0 0 0 - - - 0;
#X obj 349 986 * 250;
#X obj 349 1010 + 250;
#X floatatom 479 1061 5 0 0 0 - - - 0;
#X obj 430 1028 hradio 15 1 0 10 empty empty empty 0 -8 0 10 #fcfcfc
#000000 #000000 0;
#X floatatom 437 1061 5 0 0 0 - - - 0;
#X text 548 940 speed;
#N canvas 914 204 787 702 GenCMaj2 0;
#X obj 83 18 loadbang;
#X obj 83 42 tgl 15 0 empty empty empty 17 7 0 10 #fcfcfc #000000 #000000
0 1;
#X obj 83 120 select 0;
#X obj 170 120 select 1;
#X obj 259 120 select 2;
#X obj 348 120 select 3;
#X obj 440 120 select 4;
#X obj 529 120 select 5;
#X obj 618 120 select 6;
#X floatatom 30 117 5 0 0 0 - - - 0;
#X obj 83 89 random 7;
#X obj 100 189 bng 15 250 50 0 empty empty empty 17 7 0 10 #fcfcfc
#000000 #000000;
#X obj 83 66 metro 1000;
#X floatatom 82 325 5 0 0 0 - - - 0;
#X obj 169 157 2;
#X obj 259 158 4;
#X obj 347 159 5;
#X obj 440 159 7;
#X obj 529 161 9;
#X obj 618 162 11;
#X obj 83 156 0;
#X obj 100 256 * 12;
#X obj 82 293 +;
#X obj 187 186 bng 15 250 50 0 empty empty empty 17 7 0 10 #fcfcfc
#000000 #000000;
#X floatatom 169 325 5 0 0 0 - - - 0;
#X obj 187 253 * 12;
#X obj 169 293 +;
#X obj 277 189 bng 15 250 50 0 empty empty empty 17 7 0 10 #fcfcfc
#000000 #000000;
#X floatatom 259 325 5 0 0 0 - - - 0;
#X obj 277 256 * 12;
#X obj 259 293 +;
#X obj 365 186 bng 15 250 50 0 empty empty empty 17 7 0 10 #fcfcfc
#000000 #000000;
#X floatatom 347 325 5 0 0 0 - - - 0;
#X obj 365 253 * 12;
#X obj 347 293 +;
#X obj 458 186 bng 15 250 50 0 empty empty empty 17 7 0 10 #fcfcfc
#000000 #000000;
#X floatatom 440 325 5 0 0 0 - - - 0;
#X obj 458 253 * 12;
#X obj 440 293 +;
#X obj 547 189 bng 15 250 50 0 empty empty empty 17 7 0 10 #fcfcfc
#000000 #000000;
#X floatatom 529 325 5 0 0 0 - - - 0;
#X obj 547 256 * 12;
#X obj 529 293 +;
#X obj 636 186 bng 15 250 50 0 empty empty empty 17 7 0 10 #fcfcfc
#000000 #000000;
#X floatatom 618 325 5 0 0 0 - - - 0;
#X obj 636 253 * 12;
#X obj 618 293 +;
#X obj 262 428 change;
#X obj 262 468 outlet;
#X obj 150 18 inlet;
#X obj 100 232 f;
#X obj 187 229 f;
#X obj 277 232 f;
#X obj 365 229 f;
#X obj 458 229 f;
#X obj 547 232 f;
#X obj 636 229 f;
#X obj 705 177 inlet;
#X connect 0 0 1 0;
#X connect 1 0 12 0;
#X connect 2 0 20 0;
#X connect 3 0 14 0;
#X connect 4 0 15 0;
#X connect 5 0 16 0;
#X connect 6 0 17 0;
#X connect 7 0 18 0;
#X connect 8 0 19 0;
#X connect 10 0 2 0;
#X connect 10 0 3 0;
#X connect 10 0 4 0;
#X connect 10 0 5 0;
#X connect 10 0 6 0;
#X connect 10 0 7 0;
#X connect 10 0 8 0;
#X connect 10 0 9 0;
#X connect 11 0 50 0;
#X connect 12 0 10 0;
#X connect 13 0 47 0;
#X connect 14 0 26 0;
#X connect 14 0 23 0;
#X connect 15 0 30 0;
#X connect 15 0 27 0;
#X connect 16 0 34 0;
#X connect 16 0 31 0;
#X connect 17 0 35 0;
#X connect 17 0 38 0;
#X connect 18 0 39 0;
#X connect 18 0 42 0;
#X connect 19 0 43 0;
#X connect 19 0 46 0;
#X connect 20 0 22 0;
#X connect 20 0 11 0;
#X connect 21 0 22 1;
#X connect 22 0 13 0;
#X connect 23 0 51 0;
#X connect 24 0 47 0;
#X connect 25 0 26 1;
#X connect 26 0 24 0;
#X connect 27 0 52 0;
#X connect 28 0 47 0;
#X connect 29 0 30 1;
#X connect 30 0 28 0;
#X connect 31 0 53 0;
#X connect 32 0 47 0;
#X connect 33 0 34 1;
#X connect 34 0 32 0;
#X connect 35 0 54 0;
#X connect 36 0 47 0;
#X connect 37 0 38 1;
#X connect 38 0 36 0;
#X connect 39 0 55 0;
#X connect 40 0 47 0;
#X connect 41 0 42 1;
#X connect 42 0 40 0;
#X connect 43 0 56 0;
#X connect 44 0 47 0;
#X connect 45 0 46 1;
#X connect 46 0 44 0;
#X connect 47 0 48 0;
#X connect 49 0 12 1;
#X connect 50 0 21 0;
#X connect 51 0 25 0;
#X connect 52 0 29 0;
#X connect 53 0 33 0;
#X connect 54 0 37 0;
#X connect 55 0 41 0;
#X connect 56 0 45 0;
#X connect 57 0 56 1;
#X connect 57 0 55 1;
#X connect 57 0 54 1;
#X connect 57 0 53 1;
#X connect 57 0 52 1;
#X connect 57 0 51 1;
#X connect 57 0 50 1;
#X restore 352 731 pd GenCMaj2;
#N canvas 914 204 787 702 GenCMaj3 0;
#X obj 83 18 loadbang;
#X obj 83 42 tgl 15 0 empty empty empty 17 7 0 10 #fcfcfc #000000 #000000
0 1;
#X obj 83 120 select 0;
#X obj 170 120 select 1;
#X obj 259 120 select 2;
#X obj 348 120 select 3;
#X obj 440 120 select 4;
#X obj 529 120 select 5;
#X obj 618 120 select 6;
#X floatatom 30 117 5 0 0 0 - - - 0;
#X obj 83 89 random 7;
#X obj 100 189 bng 15 250 50 0 empty empty empty 17 7 0 10 #fcfcfc
#000000 #000000;
#X obj 83 66 metro 1000;
#X floatatom 82 325 5 0 0 0 - - - 0;
#X obj 169 157 2;
#X obj 259 158 4;
#X obj 347 159 5;
#X obj 440 159 7;
#X obj 529 161 9;
#X obj 618 162 11;
#X obj 83 156 0;
#X obj 100 256 * 12;
#X obj 82 293 +;
#X obj 187 186 bng 15 250 50 0 empty empty empty 17 7 0 10 #fcfcfc
#000000 #000000;
#X floatatom 169 325 5 0 0 0 - - - 0;
#X obj 187 253 * 12;
#X obj 169 293 +;
#X obj 277 189 bng 15 250 50 0 empty empty empty 17 7 0 10 #fcfcfc
#000000 #000000;
#X floatatom 259 325 5 0 0 0 - - - 0;
#X obj 277 256 * 12;
#X obj 259 293 +;
#X obj 365 186 bng 15 250 50 0 empty empty empty 17 7 0 10 #fcfcfc
#000000 #000000;
#X floatatom 347 325 5 0 0 0 - - - 0;
#X obj 365 253 * 12;
#X obj 347 293 +;
#X obj 458 186 bng 15 250 50 0 empty empty empty 17 7 0 10 #fcfcfc
#000000 #000000;
#X floatatom 440 325 5 0 0 0 - - - 0;
#X obj 458 253 * 12;
#X obj 440 293 +;
#X obj 547 189 bng 15 250 50 0 empty empty empty 17 7 0 10 #fcfcfc
#000000 #000000;
#X floatatom 529 325 5 0 0 0 - - - 0;
#X obj 547 256 * 12;
#X obj 529 293 +;
#X obj 636 186 bng 15 250 50 0 empty empty empty 17 7 0 10 #fcfcfc
#000000 #000000;
#X floatatom 618 325 5 0 0 0 - - - 0;
#X obj 636 253 * 12;
#X obj 618 293 +;
#X obj 262 428 change;
#X obj 262 468 outlet;
#X obj 150 18 inlet;
#X obj 100 232 f;
#X obj 187 229 f;
#X obj 277 232 f;
#X obj 365 229 f;
#X obj 458 229 f;
#X obj 547 232 f;
#X obj 636 229 f;
#X obj 705 177 inlet;
#X connect 0 0 1 0;
#X connect 1 0 12 0;
#X connect 2 0 20 0;
#X connect 3 0 14 0;
#X connect 4 0 15 0;
#X connect 5 0 16 0;
#X connect 6 0 17 0;
#X connect 7 0 18 0;
#X connect 8 0 19 0;
#X connect 10 0 2 0;
#X connect 10 0 3 0;
#X connect 10 0 4 0;
#X connect 10 0 5 0;
#X connect 10 0 6 0;
#X connect 10 0 7 0;
#X connect 10 0 8 0;
#X connect 10 0 9 0;
#X connect 11 0 50 0;
#X connect 12 0 10 0;
#X connect 13 0 47 0;
#X connect 14 0 26 0;
#X connect 14 0 23 0;
#X connect 15 0 30 0;
#X connect 15 0 27 0;
#X connect 16 0 34 0;
#X connect 16 0 31 0;
#X connect 17 0 35 0;
#X connect 17 0 38 0;
#X connect 18 0 39 0;
#X connect 18 0 42 0;
#X connect 19 0 43 0;
#X connect 19 0 46 0;
#X connect 20 0 22 0;
#X connect 20 0 11 0;
#X connect 21 0 22 1;
#X connect 22 0 13 0;
#X connect 23 0 51 0;
#X connect 24 0 47 0;
#X connect 25 0 26 1;
#X connect 26 0 24 0;
#X connect 27 0 52 0;
#X connect 28 0 47 0;
#X connect 29 0 30 1;
#X connect 30 0 28 0;
#X connect 31 0 53 0;
#X connect 32 0 47 0;
#X connect 33 0 34 1;
#X connect 34 0 32 0;
#X connect 35 0 54 0;
#X connect 36 0 47 0;
#X connect 37 0 38 1;
#X connect 38 0 36 0;
#X connect 39 0 55 0;
#X connect 40 0 47 0;
#X connect 41 0 42 1;
#X connect 42 0 40 0;
#X connect 43 0 56 0;
#X connect 44 0 47 0;
#X connect 45 0 46 1;
#X connect 46 0 44 0;
#X connect 47 0 48 0;
#X connect 49 0 12 1;
#X connect 50 0 21 0;
#X connect 51 0 25 0;
#X connect 52 0 29 0;
#X connect 53 0 33 0;
#X connect 54 0 37 0;
#X connect 55 0 41 0;
#X connect 56 0 45 0;
#X connect 57 0 56 1;
#X connect 57 0 55 1;
#X connect 57 0 54 1;
#X connect 57 0 53 1;
#X connect 57 0 52 1;
#X connect 57 0 51 1;
#X connect 57 0 50 1;
#X restore 605 731 pd GenCMaj3;
#N canvas 914 204 787 702 GenCMaj4 0;
#X obj 83 18 loadbang;
#X obj 83 42 tgl 15 0 empty empty empty 17 7 0 10 #fcfcfc #000000 #000000
0 1;
#X obj 83 120 select 0;
#X obj 170 120 select 1;
#X obj 259 120 select 2;
#X obj 348 120 select 3;
#X obj 440 120 select 4;
#X obj 529 120 select 5;
#X obj 618 120 select 6;
#X floatatom 30 117 5 0 0 0 - - - 0;
#X obj 83 89 random 7;
#X obj 100 189 bng 15 250 50 0 empty empty empty 17 7 0 10 #fcfcfc
#000000 #000000;
#X obj 83 66 metro 1000;
#X floatatom 82 325 5 0 0 0 - - - 0;
#X obj 169 157 2;
#X obj 259 158 4;
#X obj 347 159 5;
#X obj 440 159 7;
#X obj 529 161 9;
#X obj 618 162 11;
#X obj 83 156 0;
#X obj 100 256 * 12;
#X obj 82 293 +;
#X obj 187 186 bng 15 250 50 0 empty empty empty 17 7 0 10 #fcfcfc
#000000 #000000;
#X floatatom 169 325 5 0 0 0 - - - 0;
#X obj 187 253 * 12;
#X obj 169 293 +;
#X obj 277 189 bng 15 250 50 0 empty empty empty 17 7 0 10 #fcfcfc
#000000 #000000;
#X floatatom 259 325 5 0 0 0 - - - 0;
#X obj 277 256 * 12;
#X obj 259 293 +;
#X obj 365 186 bng 15 250 50 0 empty empty empty 17 7 0 10 #fcfcfc
#000000 #000000;
#X floatatom 347 325 5 0 0 0 - - - 0;
#X obj 365 253 * 12;
#X obj 347 293 +;
#X obj 458 186 bng 15 250 50 0 empty empty empty 17 7 0 10 #fcfcfc
#000000 #000000;
#X floatatom 440 325 5 0 0 0 - - - 0;
#X obj 458 253 * 12;
#X obj 440 293 +;
#X obj 547 189 bng 15 250 50 0 empty empty empty 17 7 0 10 #fcfcfc
#000000 #000000;
#X floatatom 529 325 5 0 0 0 - - - 0;
#X obj 547 256 * 12;
#X obj 529 293 +;
#X obj 636 186 bng 15 250 50 0 empty empty empty 17 7 0 10 #fcfcfc
#000000 #000000;
#X floatatom 618 325 5 0 0 0 - - - 0;
#X obj 636 253 * 12;
#X obj 618 293 +;
#X obj 262 428 change;
#X obj 262 468 outlet;
#X obj 150 18 inlet;
#X obj 100 232 f;
#X obj 187 229 f;
#X obj 277 232 f;
#X obj 365 229 f;
#X obj 458 229 f;
#X obj 547 232 f;
#X obj 636 229 f;
#X obj 705 177 inlet;
#X connect 0 0 1 0;
#X connect 1 0 12 0;
#X connect 2 0 20 0;
#X connect 3 0 14 0;
#X connect 4 0 15 0;
#X connect 5 0 16 0;
#X connect 6 0 17 0;
#X connect 7 0 18 0;
#X connect 8 0 19 0;
#X connect 10 0 2 0;
#X connect 10 0 3 0;
#X connect 10 0 4 0;
#X connect 10 0 5 0;
#X connect 10 0 6 0;
#X connect 10 0 7 0;
#X connect 10 0 8 0;
#X connect 10 0 9 0;
#X connect 11 0 50 0;
#X connect 12 0 10 0;
#X connect 13 0 47 0;
#X connect 14 0 26 0;
#X connect 14 0 23 0;
#X connect 15 0 30 0;
#X connect 15 0 27 0;
#X connect 16 0 34 0;
#X connect 16 0 31 0;
#X connect 17 0 35 0;
#X connect 17 0 38 0;
#X connect 18 0 39 0;
#X connect 18 0 42 0;
#X connect 19 0 43 0;
#X connect 19 0 46 0;
#X connect 20 0 22 0;
#X connect 20 0 11 0;
#X connect 21 0 22 1;
#X connect 22 0 13 0;
#X connect 23 0 51 0;
#X connect 24 0 47 0;
#X connect 25 0 26 1;
#X connect 26 0 24 0;
#X connect 27 0 52 0;
#X connect 28 0 47 0;
#X connect 29 0 30 1;
#X connect 30 0 28 0;
#X connect 31 0 53 0;
#X connect 32 0 47 0;
#X connect 33 0 34 1;
#X connect 34 0 32 0;
#X connect 35 0 54 0;
#X connect 36 0 47 0;
#X connect 37 0 38 1;
#X connect 38 0 36 0;
#X connect 39 0 55 0;
#X connect 40 0 47 0;
#X connect 41 0 42 1;
#X connect 42 0 40 0;
#X connect 43 0 56 0;
#X connect 44 0 47 0;
#X connect 45 0 46 1;
#X connect 46 0 44 0;
#X connect 47 0 48 0;
#X connect 49 0 12 1;
#X connect 50 0 21 0;
#X connect 51 0 25 0;
#X connect 52 0 29 0;
#X connect 53 0 33 0;
#X connect 54 0 37 0;
#X connect 55 0 41 0;
#X connect 56 0 45 0;
#X connect 57 0 56 1;
#X connect 57 0 55 1;
#X connect 57 0 54 1;
#X connect 57 0 53 1;
#X connect 57 0 52 1;
#X connect 57 0 51 1;
#X connect 57 0 50 1;
#X restore 858 736 pd GenCMaj4;
#N canvas 914 204 787 702 GenCMaj6 0;
#X obj 83 18 loadbang;
#X obj 83 42 tgl 15 0 empty empty empty 17 7 0 10 #fcfcfc #000000 #000000
0 1;
#X obj 83 120 select 0;
#X obj 170 120 select 1;
#X obj 259 120 select 2;
#X obj 348 120 select 3;
#X obj 440 120 select 4;
#X obj 529 120 select 5;
#X obj 618 120 select 6;
#X floatatom 30 117 5 0 0 0 - - - 0;
#X obj 83 89 random 7;
#X obj 100 189 bng 15 250 50 0 empty empty empty 17 7 0 10 #fcfcfc
#000000 #000000;
#X obj 83 66 metro 1000;
#X floatatom 82 325 5 0 0 0 - - - 0;
#X obj 169 157 2;
#X obj 259 158 4;
#X obj 347 159 5;
#X obj 440 159 7;
#X obj 529 161 9;
#X obj 618 162 11;
#X obj 83 156 0;
#X obj 100 256 * 12;
#X obj 82 293 +;
#X obj 187 186 bng 15 250 50 0 empty empty empty 17 7 0 10 #fcfcfc
#000000 #000000;
#X floatatom 169 325 5 0 0 0 - - - 0;
#X obj 187 253 * 12;
#X obj 169 293 +;
#X obj 277 189 bng 15 250 50 0 empty empty empty 17 7 0 10 #fcfcfc
#000000 #000000;
#X floatatom 259 325 5 0 0 0 - - - 0;
#X obj 277 256 * 12;
#X obj 259 293 +;
#X obj 365 186 bng 15 250 50 0 empty empty empty 17 7 0 10 #fcfcfc
#000000 #000000;
#X floatatom 347 325 5 0 0 0 - - - 0;
#X obj 365 253 * 12;
#X obj 347 293 +;
#X obj 458 186 bng 15 250 50 0 empty empty empty 17 7 0 10 #fcfcfc
#000000 #000000;
#X floatatom 440 325 5 0 0 0 - - - 0;
#X obj 458 253 * 12;
#X obj 440 293 +;
#X obj 547 189 bng 15 250 50 0 empty empty empty 17 7 0 10 #fcfcfc
#000000 #000000;
#X floatatom 529 325 5 0 0 0 - - - 0;
#X obj 547 256 * 12;
#X obj 529 293 +;
#X obj 636 186 bng 15 250 50 0 empty empty empty 17 7 0 10 #fcfcfc
#000000 #000000;
#X floatatom 618 325 5 0 0 0 - - - 0;
#X obj 636 253 * 12;
#X obj 618 293 +;
#X obj 262 428 change;
#X obj 262 468 outlet;
#X obj 150 18 inlet;
#X obj 100 232 f;
#X obj 187 229 f;
#X obj 277 232 f;
#X obj 365 229 f;
#X obj 458 229 f;
#X obj 547 232 f;
#X obj 636 229 f;
#X obj 705 177 inlet;
#X connect 0 0 1 0;
#X connect 1 0 12 0;
#X connect 2 0 20 0;
#X connect 3 0 14 0;
#X connect 4 0 15 0;
#X connect 5 0 16 0;
#X connect 6 0 17 0;
#X connect 7 0 18 0;
#X connect 8 0 19 0;
#X connect 10 0 2 0;
#X connect 10 0 3 0;
#X connect 10 0 4 0;
#X connect 10 0 5 0;
#X connect 10 0 6 0;
#X connect 10 0 7 0;
#X connect 10 0 8 0;
#X connect 10 0 9 0;
#X connect 11 0 50 0;
#X connect 12 0 10 0;
#X connect 13 0 47 0;
#X connect 14 0 26 0;
#X connect 14 0 23 0;
#X connect 15 0 30 0;
#X connect 15 0 27 0;
#X connect 16 0 34 0;
#X connect 16 0 31 0;
#X connect 17 0 35 0;
#X connect 17 0 38 0;
#X connect 18 0 39 0;
#X connect 18 0 42 0;
#X connect 19 0 43 0;
#X connect 19 0 46 0;
#X connect 20 0 22 0;
#X connect 20 0 11 0;
#X connect 21 0 22 1;
#X connect 22 0 13 0;
#X connect 23 0 51 0;
#X connect 24 0 47 0;
#X connect 25 0 26 1;
#X connect 26 0 24 0;
#X connect 27 0 52 0;
#X connect 28 0 47 0;
#X connect 29 0 30 1;
#X connect 30 0 28 0;
#X connect 31 0 53 0;
#X connect 32 0 47 0;
#X connect 33 0 34 1;
#X connect 34 0 32 0;
#X connect 35 0 54 0;
#X connect 36 0 47 0;
#X connect 37 0 38 1;
#X connect 38 0 36 0;
#X connect 39 0 55 0;
#X connect 40 0 47 0;
#X connect 41 0 42 1;
#X connect 42 0 40 0;
#X connect 43 0 56 0;
#X connect 44 0 47 0;
#X connect 45 0 46 1;
#X connect 46 0 44 0;
#X connect 47 0 48 0;
#X connect 49 0 12 1;
#X connect 50 0 21 0;
#X connect 51 0 25 0;
#X connect 52 0 29 0;
#X connect 53 0 33 0;
#X connect 54 0 37 0;
#X connect 55 0 41 0;
#X connect 56 0 45 0;
#X connect 57 0 56 1;
#X connect 57 0 55 1;
#X connect 57 0 54 1;
#X connect 57 0 53 1;
#X connect 57 0 52 1;
#X connect 57 0 51 1;
#X connect 57 0 50 1;
#X restore 349 1060 pd GenCMaj6;
#N canvas 914 204 787 702 GenCMaj5 0;
#X obj 83 18 loadbang;
#X obj 83 42 tgl 15 0 empty empty empty 17 7 0 10 #fcfcfc #000000 #000000
0 1;
#X obj 83 120 select 0;
#X obj 170 120 select 1;
#X obj 259 120 select 2;
#X obj 348 120 select 3;
#X obj 440 120 select 4;
#X obj 529 120 select 5;
#X obj 618 120 select 6;
#X floatatom 30 117 5 0 0 0 - - - 0;
#X obj 83 89 random 7;
#X obj 100 189 bng 15 250 50 0 empty empty empty 17 7 0 10 #fcfcfc
#000000 #000000;
#X obj 83 66 metro 1000;
#X floatatom 82 325 5 0 0 0 - - - 0;
#X obj 169 157 2;
#X obj 259 158 4;
#X obj 347 159 5;
#X obj 440 159 7;
#X obj 529 161 9;
#X obj 618 162 11;
#X obj 83 156 0;
#X obj 100 256 * 12;
#X obj 82 293 +;
#X obj 187 186 bng 15 250 50 0 empty empty empty 17 7 0 10 #fcfcfc
#000000 #000000;
#X floatatom 169 325 5 0 0 0 - - - 0;
#X obj 187 253 * 12;
#X obj 169 293 +;
#X obj 277 189 bng 15 250 50 0 empty empty empty 17 7 0 10 #fcfcfc
#000000 #000000;
#X floatatom 259 325 5 0 0 0 - - - 0;
#X obj 277 256 * 12;
#X obj 259 293 +;
#X obj 365 186 bng 15 250 50 0 empty empty empty 17 7 0 10 #fcfcfc
#000000 #000000;
#X floatatom 347 325 5 0 0 0 - - - 0;
#X obj 365 253 * 12;
#X obj 347 293 +;
#X obj 458 186 bng 15 250 50 0 empty empty empty 17 7 0 10 #fcfcfc
#000000 #000000;
#X floatatom 440 325 5 0 0 0 - - - 0;
#X obj 458 253 * 12;
#X obj 440 293 +;
#X obj 547 189 bng 15 250 50 0 empty empty empty 17 7 0 10 #fcfcfc
#000000 #000000;
#X floatatom 529 325 5 0 0 0 - - - 0;
#X obj 547 256 * 12;
#X obj 529 293 +;
#X obj 636 186 bng 15 250 50 0 empty empty empty 17 7 0 10 #fcfcfc
#000000 #000000;
#X floatatom 618 325 5 0 0 0 - - - 0;
#X obj 636 253 * 12;
#X obj 618 293 +;
#X obj 262 428 change;
#X obj 262 468 outlet;
#X obj 150 18 inlet;
#X obj 100 232 f;
#X obj 187 229 f;
#X obj 277 232 f;
#X obj 365 229 f;
#X obj 458 229 f;
#X obj 547 232 f;
#X obj 636 229 f;
#X obj 705 177 inlet;
#X connect 0 0 1 0;
#X connect 1 0 12 0;
#X connect 2 0 20 0;
#X connect 3 0 14 0;
#X connect 4 0 15 0;
#X connect 5 0 16 0;
#X connect 6 0 17 0;
#X connect 7 0 18 0;
#X connect 8 0 19 0;
#X connect 10 0 2 0;
#X connect 10 0 3 0;
#X connect 10 0 4 0;
#X connect 10 0 5 0;
#X connect 10 0 6 0;
#X connect 10 0 7 0;
#X connect 10 0 8 0;
#X connect 10 0 9 0;
#X connect 11 0 50 0;
#X connect 12 0 10 0;
#X connect 13 0 47 0;
#X connect 14 0 26 0;
#X connect 14 0 23 0;
#X connect 15 0 30 0;
#X connect 15 0 27 0;
#X connect 16 0 34 0;
#X connect 16 0 31 0;
#X connect 17 0 35 0;
#X connect 17 0 38 0;
#X connect 18 0 39 0;
#X connect 18 0 42 0;
#X connect 19 0 43 0;
#X connect 19 0 46 0;
#X connect 20 0 22 0;
#X connect 20 0 11 0;
#X connect 21 0 22 1;
#X connect 22 0 13 0;
#X connect 23 0 51 0;
#X connect 24 0 47 0;
#X connect 25 0 26 1;
#X connect 26 0 24 0;
#X connect 27 0 52 0;
#X connect 28 0 47 0;
#X connect 29 0 30 1;
#X connect 30 0 28 0;
#X connect 31 0 53 0;
#X connect 32 0 47 0;
#X connect 33 0 34 1;
#X connect 34 0 32 0;
#X connect 35 0 54 0;
#X connect 36 0 47 0;
#X connect 37 0 38 1;
#X connect 38 0 36 0;
#X connect 39 0 55 0;
#X connect 40 0 47 0;
#X connect 41 0 42 1;
#X connect 42 0 40 0;
#X connect 43 0 56 0;
#X connect 44 0 47 0;
#X connect 45 0 46 1;
#X connect 46 0 44 0;
#X connect 47 0 48 0;
#X connect 49 0 12 1;
#X connect 50 0 21 0;
#X connect 51 0 25 0;
#X connect 52 0 29 0;
#X connect 53 0 33 0;
#X connect 54 0 37 0;
#X connect 55 0 41 0;
#X connect 56 0 45 0;
#X connect 57 0 56 1;
#X connect 57 0 55 1;
#X connect 57 0 54 1;
#X connect 57 0 53 1;
#X connect 57 0 52 1;
#X connect 57 0 51 1;
#X connect 57 0 50 1;
#X restore 96 1055 pd GenCMaj5;
#N canvas 1727 291 794 633 midiNoteGen2 0;
#X obj 160 255 pack 1 1 127;
#X obj 310 260 pack 1 1;
#X msg 160 313 midi_note \$1 \$2 \$3;
#X obj 246 116 inlet;
#X obj 293 156 bng 15 250 50 0 empty empty empty 17 7 0 10 #fcfcfc
#000000 #000000;
#X floatatom 246 154 5 0 0 0 - - - 0;
#X obj 161 205 delay 1;
#X listbox 14 313 20 0 0 0 - - - 0;
#X obj 363 229 f;
#X obj 453 115 inlet;
#X obj 363 201 delay;
#X obj 498 115 loadbang;
#X msg 498 142 1000;
#X floatatom 375 257 5 0 0 0 - - - 0;
#X listbox 450 314 20 0 0 0 - - - 0;
#X obj 160 356 outlet;
#X obj 311 358 outlet;
#X msg 311 313 midi_noteoff \$1 \$2;
#X connect 0 0 2 0;
#X connect 0 0 7 0;
#X connect 1 0 17 0;
#X connect 1 0 14 0;
#X connect 2 0 15 0;
#X connect 3 0 4 0;
#X connect 3 0 5 0;
#X connect 4 0 6 0;
#X connect 4 0 10 0;
#X connect 5 0 0 1;
#X connect 5 0 8 1;
#X connect 6 0 0 0;
#X connect 8 0 13 0;
#X connect 8 0 1 1;
#X connect 9 0 10 1;
#X connect 10 0 8 0;
#X connect 10 0 1 0;
#X connect 11 0 12 0;
#X connect 12 0 10 1;
#X connect 17 0 16 0;
#X restore 351 860 pd midiNoteGen2;
#N canvas 1727 291 794 633 midiNoteGen3 0;
#X obj 160 255 pack 1 1 127;
#X obj 310 260 pack 1 1;
#X msg 160 313 midi_note \$1 \$2 \$3;
#X obj 246 116 inlet;
#X obj 293 156 bng 15 250 50 0 empty empty empty 17 7 0 10 #fcfcfc
#000000 #000000;
#X floatatom 246 154 5 0 0 0 - - - 0;
#X obj 161 205 delay 1;
#X listbox 14 313 20 0 0 0 - - - 0;
#X obj 363 229 f;
#X obj 453 115 inlet;
#X obj 363 201 delay;
#X obj 498 115 loadbang;
#X msg 498 142 1000;
#X floatatom 375 257 5 0 0 0 - - - 0;
#X listbox 450 314 20 0 0 0 - - - 0;
#X obj 160 356 outlet;
#X obj 311 358 outlet;
#X msg 311 312 midi_noteoff \$1 \$2;
#X connect 0 0 2 0;
#X connect 0 0 7 0;
#X connect 1 0 17 0;
#X connect 1 0 14 0;
#X connect 2 0 15 0;
#X connect 3 0 4 0;
#X connect 3 0 5 0;
#X connect 4 0 6 0;
#X connect 4 0 10 0;
#X connect 5 0 0 1;
#X connect 5 0 8 1;
#X connect 6 0 0 0;
#X connect 8 0 13 0;
#X connect 8 0 1 1;
#X connect 9 0 10 1;
#X connect 10 0 8 0;
#X connect 10 0 1 0;
#X connect 11 0 12 0;
#X connect 12 0 10 1;
#X connect 17 0 16 0;
#X restore 604 860 pd midiNoteGen3;
#N canvas 1727 291 794 633 midiNoteGen4 0;
#X obj 160 255 pack 1 1 127;
#X obj 310 260 pack 1 1;
#X msg 160 313 midi_note \$1 \$2 \$3;
#X obj 246 116 inlet;
#X obj 293 156 bng 15 250 50 0 empty empty empty 17 7 0 10 #fcfcfc
#000000 #000000;
#X floatatom 246 154 5 0 0 0 - - - 0;
#X obj 161 205 delay 1;
#X listbox 14 313 20 0 0 0 - - - 0;
#X obj 363 229 f;
#X obj 453 115 inlet;
#X obj 363 201 delay;
#X obj 498 115 loadbang;
#X msg 498 142 1000;
#X floatatom 375 257 5 0 0 0 - - - 0;
#X listbox 450 314 20 0 0 0 - - - 0;
#X obj 160 356 outlet;
#X obj 311 358 outlet;
#X msg 311 313 midi_noteoff \$1 \$2;
#X connect 0 0 2 0;
#X connect 0 0 7 0;
#X connect 1 0 17 0;
#X connect 1 0 14 0;
#X connect 2 0 15 0;
#X connect 3 0 4 0;
#X connect 3 0 5 0;
#X connect 4 0 6 0;
#X connect 4 0 10 0;
#X connect 5 0 0 1;
#X connect 5 0 8 1;
#X connect 6 0 0 0;
#X connect 8 0 13 0;
#X connect 8 0 1 1;
#X connect 9 0 10 1;
#X connect 10 0 8 0;
#X connect 10 0 1 0;
#X connect 11 0 12 0;
#X connect 12 0 10 1;
#X connect 17 0 16 0;
#X restore 857 865 pd midiNoteGen4;
#N canvas 1727 291 794 633 midiNoteGen5 0;
#X obj 160 255 pack 1 1 127;
#X obj 310 260 pack 1 1;
#X msg 160 313 midi_note \$1 \$2 \$3;
#X obj 246 116 inlet;
#X obj 293 156 bng 15 250 50 0 empty empty empty 17 7 0 10 #fcfcfc
#000000 #000000;
#X floatatom 246 154 5 0 0 0 - - - 0;
#X obj 161 205 delay 1;
#X listbox 14 313 20 0 0 0 - - - 0;
#X obj 363 229 f;
#X obj 453 115 inlet;
#X obj 363 201 delay;
#X obj 498 115 loadbang;
#X msg 498 142 1000;
#X floatatom 375 257 5 0 0 0 - - - 0;
#X listbox 450 314 20 0 0 0 - - - 0;
#X obj 160 356 outlet;
#X obj 311 358 outlet;
#X msg 311 313 midi_noteoff \$1 \$2;
#X connect 0 0 2 0;
#X connect 0 0 7 0;
#X connect 1 0 17 0;
#X connect 1 0 14 0;
#X connect 2 0 15 0;
#X connect 3 0 4 0;
#X connect 3 0 5 0;
#X connect 4 0 6 0;
#X connect 4 0 10 0;
#X connect 5 0 0 1;
#X connect 5 0 8 1;
#X connect 6 0 0 0;
#X connect 8 0 13 0;
#X connect 8 0 1 1;
#X connect 9 0 10 1;
#X connect 10 0 8 0;
#X connect 10 0 1 0;
#X connect 11 0 12 0;
#X connect 12 0 10 1;
#X connect 17 0 16 0;
#X restore 96 1224 pd midiNoteGen5;
#N canvas 1727 291 794 633 midiNoteGen6 0;
#X obj 160 255 pack 1 1 127;
#X obj 310 260 pack 1 1;
#X msg 160 313 midi_note \$1 \$2 \$3;
#X obj 246 116 inlet;
#X obj 293 156 bng 15 250 50 0 empty empty empty 17 7 0 10 #fcfcfc
#000000 #000000;
#X floatatom 246 154 5 0 0 0 - - - 0;
#X obj 161 205 delay 1;
#X listbox 14 313 20 0 0 0 - - - 0;
#X obj 363 229 f;
#X obj 453 115 inlet;
#X obj 363 201 delay;
#X obj 498 115 loadbang;
#X msg 498 142 1000;
#X floatatom 375 257 5 0 0 0 - - - 0;
#X listbox 450 314 20 0 0 0 - - - 0;
#X obj 160 356 outlet;
#X obj 311 358 outlet;
#X msg 311 313 midi_noteoff \$1 \$2;
#X connect 0 0 2 0;
#X connect 0 0 7 0;
#X connect 1 0 17 0;
#X connect 1 0 14 0;
#X connect 2 0 15 0;
#X connect 3 0 4 0;
#X connect 3 0 5 0;
#X connect 4 0 6 0;
#X connect 4 0 10 0;
#X connect 5 0 0 1;
#X connect 5 0 8 1;
#X connect 6 0 0 0;
#X connect 8 0 13 0;
#X connect 8 0 1 1;
#X connect 9 0 10 1;
#X connect 10 0 8 0;
#X connect 10 0 1 0;
#X connect 11 0 12 0;
#X connect 12 0 10 1;
#X connect 17 0 16 0;
#X restore 349 1228 pd midiNoteGen6;
#X obj 1111 227 loadbang;
#X msg 961 305 0;
#X msg 1001 305 1;
#X msg 1037 305 2;
#X msg 1076 305 3;
#X msg 1116 305 4;
#X msg 1155 305 5;
#X obj 897 353 s \$0-0;
#X obj 955 353 s \$0-1;
#X obj 1008 353 s \$0-2;
#X obj 1061 353 s \$0-3;
#X obj 1117 353 s \$0-4;
#X obj 1172 353 s \$0-5;
#X obj 494 898 send ToInst;
#X obj 502 1260 send ToInst;
#X obj 1296 721 receive ToInst;
#X msg 1196 305 6;
#X msg 1235 305 7;
#X msg 1275 305 8;
#X msg 1314 305 9;
#X obj 1226 354 s \$0-6;
#X obj 1278 355 s \$0-7;
#X obj 1330 356 s \$0-8;
#X obj 1383 355 s \$0-9;
#X obj 1257 771 vsl 15 128 500 5000 0 0 empty empty empty 0 -9 0 10
#fcfcfc #000000 #000000 0 1;
#X obj 1448 831 lop~;
#X obj 1448 860 lop~;
#X obj 1448 889 lop~;
#X obj 1448 918 lop~;
#X obj 1500 829 lop~;
#X obj 1500 858 lop~;
#X obj 1500 887 lop~;
#X obj 1500 916 lop~;
#X obj 1442 977 vstplugin~;
#X obj 1169 918 loadbang;
#X msg 1169 947 open -e ValhallaSpaceModulator.vst3;
#X text 1167 973 Load Preset MVC;
#X floatatom 1257 916 5 0 0 0 - - - 0;
#X obj 1176 701 loadbang;
#X floatatom 634 1098 5 0 0 0 - - - 0;
#X obj 632 947 hradio 15 1 0 13 empty empty empty 0 -8 0 10 #fcfcfc
#000000 #000000 0;
#X floatatom 632 969 5 0 0 0 - - - 0;
#X obj 632 992 * 250;
#X obj 632 1016 + 250;
#X floatatom 762 1067 5 0 0 0 - - - 0;
#X obj 713 1034 hradio 15 1 0 10 empty empty empty 0 -8 0 10 #fcfcfc
#000000 #000000 0;
#X floatatom 720 1067 5 0 0 0 - - - 0;
#X text 831 946 speed;
#N canvas 914 204 787 702 GenCMaj6 0;
#X obj 83 18 loadbang;
#X obj 83 42 tgl 15 0 empty empty empty 17 7 0 10 #fcfcfc #000000 #000000
0 1;
#X obj 83 120 select 0;
#X obj 170 120 select 1;
#X obj 259 120 select 2;
#X obj 348 120 select 3;
#X obj 440 120 select 4;
#X obj 529 120 select 5;
#X obj 618 120 select 6;
#X floatatom 30 117 5 0 0 0 - - - 0;
#X obj 83 89 random 7;
#X obj 100 189 bng 15 250 50 0 empty empty empty 17 7 0 10 #fcfcfc
#000000 #000000;
#X obj 83 66 metro 1000;
#X floatatom 82 325 5 0 0 0 - - - 0;
#X obj 169 157 2;
#X obj 259 158 4;
#X obj 347 159 5;
#X obj 440 159 7;
#X obj 529 161 9;
#X obj 618 162 11;
#X obj 83 156 0;
#X obj 100 256 * 12;
#X obj 82 293 +;
#X obj 187 186 bng 15 250 50 0 empty empty empty 17 7 0 10 #fcfcfc
#000000 #000000;
#X floatatom 169 325 5 0 0 0 - - - 0;
#X obj 187 253 * 12;
#X obj 169 293 +;
#X obj 277 189 bng 15 250 50 0 empty empty empty 17 7 0 10 #fcfcfc
#000000 #000000;
#X floatatom 259 325 5 0 0 0 - - - 0;
#X obj 277 256 * 12;
#X obj 259 293 +;
#X obj 365 186 bng 15 250 50 0 empty empty empty 17 7 0 10 #fcfcfc
#000000 #000000;
#X floatatom 347 325 5 0 0 0 - - - 0;
#X obj 365 253 * 12;
#X obj 347 293 +;
#X obj 458 186 bng 15 250 50 0 empty empty empty 17 7 0 10 #fcfcfc
#000000 #000000;
#X floatatom 440 325 5 0 0 0 - - - 0;
#X obj 458 253 * 12;
#X obj 440 293 +;
#X obj 547 189 bng 15 250 50 0 empty empty empty 17 7 0 10 #fcfcfc
#000000 #000000;
#X floatatom 529 325 5 0 0 0 - - - 0;
#X obj 547 256 * 12;
#X obj 529 293 +;
#X obj 636 186 bng 15 250 50 0 empty empty empty 17 7 0 10 #fcfcfc
#000000 #000000;
#X floatatom 618 325 5 0 0 0 - - - 0;
#X obj 636 253 * 12;
#X obj 618 293 +;
#X obj 262 428 change;
#X obj 262 468 outlet;
#X obj 150 18 inlet;
#X obj 100 232 f;
#X obj 187 229 f;
#X obj 277 232 f;
#X obj 365 229 f;
#X obj 458 229 f;
#X obj 547 232 f;
#X obj 636 229 f;
#X obj 705 177 inlet;
#X connect 0 0 1 0;
#X connect 1 0 12 0;
#X connect 2 0 20 0;
#X connect 3 0 14 0;
#X connect 4 0 15 0;
#X connect 5 0 16 0;
#X connect 6 0 17 0;
#X connect 7 0 18 0;
#X connect 8 0 19 0;
#X connect 10 0 2 0;
#X connect 10 0 3 0;
#X connect 10 0 4 0;
#X connect 10 0 5 0;
#X connect 10 0 6 0;
#X connect 10 0 7 0;
#X connect 10 0 8 0;
#X connect 10 0 9 0;
#X connect 11 0 50 0;
#X connect 12 0 10 0;
#X connect 13 0 47 0;
#X connect 14 0 26 0;
#X connect 14 0 23 0;
#X connect 15 0 30 0;
#X connect 15 0 27 0;
#X connect 16 0 34 0;
#X connect 16 0 31 0;
#X connect 17 0 35 0;
#X connect 17 0 38 0;
#X connect 18 0 39 0;
#X connect 18 0 42 0;
#X connect 19 0 43 0;
#X connect 19 0 46 0;
#X connect 20 0 22 0;
#X connect 20 0 11 0;
#X connect 21 0 22 1;
#X connect 22 0 13 0;
#X connect 23 0 51 0;
#X connect 24 0 47 0;
#X connect 25 0 26 1;
#X connect 26 0 24 0;
#X connect 27 0 52 0;
#X connect 28 0 47 0;
#X connect 29 0 30 1;
#X connect 30 0 28 0;
#X connect 31 0 53 0;
#X connect 32 0 47 0;
#X connect 33 0 34 1;
#X connect 34 0 32 0;
#X connect 35 0 54 0;
#X connect 36 0 47 0;
#X connect 37 0 38 1;
#X connect 38 0 36 0;
#X connect 39 0 55 0;
#X connect 40 0 47 0;
#X connect 41 0 42 1;
#X connect 42 0 40 0;
#X connect 43 0 56 0;
#X connect 44 0 47 0;
#X connect 45 0 46 1;
#X connect 46 0 44 0;
#X connect 47 0 48 0;
#X connect 49 0 12 1;
#X connect 50 0 21 0;
#X connect 51 0 25 0;
#X connect 52 0 29 0;
#X connect 53 0 33 0;
#X connect 54 0 37 0;
#X connect 55 0 41 0;
#X connect 56 0 45 0;
#X connect 57 0 56 1;
#X connect 57 0 55 1;
#X connect 57 0 54 1;
#X connect 57 0 53 1;
#X connect 57 0 52 1;
#X connect 57 0 51 1;
#X connect 57 0 50 1;
#X restore 632 1066 pd GenCMaj6;
#X obj 723 1202 mtof;
#X obj 723 1230 osc~;
#X obj 723 1256 *~;
#X obj 885 1048 vsl 15 128 0 1 0 0 empty empty empty 0 -9 0 10 #fcfcfc
#000000 #000000 0 1;
#X obj 689 1175 - 4;
#X obj 1289 565 inlet;
#X obj 894 985 inlet;
#X obj 723 1286 outlet~;
#X obj 1372 1173 outlet~;
#X obj 1450 1173 outlet~;
#X msg 1356 305 10;
#X msg 1396 305 11;
#X msg 1435 305 12;
#X obj 1436 356 s \$0-10;
#X obj 1496 356 s \$0-11;
#X obj 1559 356 s \$0-12;
#X obj 99 577 r \$0-12;
#X obj 352 583 r \$0-11;
#X obj 605 582 r \$0-10;
#X obj 858 587 r \$0-9;
#X obj 349 910 r \$0-10;
#X obj 94 901 r \$0-10;
#X obj 633 913 r \$0-11;
#X obj 173 665 r \$0-7;
#X obj 431 665 r \$0-6;
#X obj 686 663 r \$0-5;
#X obj 947 659 r \$0-5;
#X obj 437 983 r \$0-4;
#X obj 171 984 r \$0-5;
#X floatatom 911 1045 5 0 0 0 - - - 0;
#X floatatom 1314 676 5 0 0 0 - - - 0;
#X obj 465 94 select 43;
#X obj 614 96 select 44;
#X obj 99 832 spigot;
#X obj 352 837 spigot;
#X obj 604 837 spigot;
#X obj 857 841 spigot;
#X obj 95 1190 spigot;
#X obj 349 1203 spigot;
#X obj 123 394 0;
#X obj 264 394 1;
#X obj 180 435 send PLAYSTOP;
#X obj 1027 769 receive PLAYSTOP;
#X obj 155 803 tgl 15 0 empty empty empty 17 7 0 10 #fcfcfc #000000
#000000 0 1;
#X obj 142 1170 tgl 15 0 empty empty empty 17 7 0 10 #fcfcfc #000000
#000000 0 1;
#X obj 390 1176 tgl 15 0 empty empty empty 17 7 0 10 #fcfcfc #000000
#000000 0 1;
#X obj 401 807 tgl 15 0 empty empty empty 17 7 0 10 #fcfcfc #000000
#000000 0 1;
#X obj 650 811 tgl 15 0 empty empty empty 17 7 0 10 #fcfcfc #000000
#000000 0 1;
#X obj 896 815 tgl 15 0 empty empty empty 17 7 0 10 #fcfcfc #000000
#000000 0 1;
#X obj 487 1107 receive PLAYSTOP;
#X msg 1176 725 1988;
#X obj 1243 636 cyclone/scale 0 1 500 5000;
#X obj 95 1157 +;
#X obj 352 799 +;
#X obj 348 1163 +;
#X obj 99 795 +;
#X obj 859 810 +;
#X obj 606 806 +;
#X obj 635 1154 spigot;
#X obj 681 1135 tgl 15 0 empty empty empty 17 7 0 10 #fcfcfc #000000
#000000 0 1;
#X obj 637 1130 +;
#X obj 565 396 random 11;
#X floatatom 662 430 5 0 0 0 - - - 0;
#X obj 754 132 change;
#X obj 754 157 bng 15 250 50 0 empty empty empty 17 7 0 10 #fcfcfc
#000000 #000000;
#X obj 753 264 == 1;
#X obj 811 208 0;
#X floatatom 790 302 5 0 0 0 - - - 0;
#X obj 811 133 1;
#X floatatom 753 236 5 0 0 0 - - - 0;
#X obj 811 162 bng 15 250 50 0 empty empty empty 17 7 0 10 #fcfcfc
#000000 #000000;
#X obj 811 182 delay 10;
#X obj 704 301 +;
#X obj 704 328 == 2;
#X obj 704 353 select 1;
#X obj 705 378 bng 15 250 50 0 empty empty empty 17 7 0 10 #fcfcfc
#000000 #000000;
#X floatatom 651 352 5 0 0 0 - - - 0;
#X text 721 377 NEXT;
#X obj 754 100 select 45;
#X obj 705 402 0;
#X msg 543 425 0;
#N canvas 1706 25 854 1328 flipFlop1 0;
#X obj 145 172 + 1;
#X floatatom 146 199 5 0 0 0 - - - 0;
#X obj 145 144 1;
#X obj 307 192 0;
#X obj 145 223 - 1;
#X floatatom 145 247 5 0 0 0 - - - 0;
#X obj 96 199 - 2;
#X obj 96 223 abs;
#X floatatom 96 247 5 0 0 0 - - - 0;
#X obj 309 143 select 2;
#X obj 145 110 inlet;
#X obj 253 92 inlet;
#X obj 96 288 outlet;
#X obj 148 289 outlet;
#X connect 0 0 1 0;
#X connect 1 0 4 0;
#X connect 1 0 6 0;
#X connect 1 0 9 0;
#X connect 2 0 0 0;
#X connect 3 0 0 1;
#X connect 4 0 5 0;
#X connect 5 0 13 0;
#X connect 6 0 7 0;
#X connect 7 0 8 0;
#X connect 8 0 12 0;
#X connect 9 0 3 0;
#X connect 9 1 0 1;
#X connect 10 0 2 0;
#X connect 11 0 0 1;
#X restore 462 449 pd flipFlop1;
#X floatatom 461 472 5 0 0 0 - - - 0;
#X floatatom 542 476 5 0 0 0 - - - 0;
#X obj 463 430 bng 15 250 50 0 empty empty empty 17 7 0 10 #fcfcfc
#000000 #000000;
#X obj 542 501 select 1;
#X obj 671 488 +;
#X obj 460 494 select 1;
#X floatatom 671 513 5 0 0 0 - - - 0;
#X obj 671 462 0;
#X obj 706 457 value Prev;
#X obj 706 432 delay 100;
#X obj 671 536 value SendPrev;
#X obj 847 485 send Offset;
#X obj 1029 790 receive Offset;
#X obj 748 1106 receive Offset;
#X obj 712 989 r \$0-2;
#X connect 0 0 1 0;
#X connect 0 1 2 0;
#X connect 0 2 3 0;
#X connect 1 0 4 0;
#X connect 2 0 12 0;
#X connect 2 0 34 0;
#X connect 2 0 223 0;
#X connect 2 0 224 0;
#X connect 2 0 270 0;
#X connect 4 0 5 0;
#X connect 5 0 6 0;
#X connect 6 0 8 0;
#X connect 7 0 13 0;
#X connect 7 0 19 0;
#X connect 7 0 35 0;
#X connect 7 0 51 0;
#X connect 7 0 65 0;
#X connect 7 0 264 0;
#X connect 8 0 7 0;
#X connect 9 0 10 0;
#X connect 10 0 22 0;
#X connect 10 0 21 0;
#X connect 11 0 13 1;
#X connect 11 0 20 0;
#X connect 12 0 9 0;
#X connect 13 0 14 0;
#X connect 14 0 15 0;
#X connect 14 0 18 0;
#X connect 15 0 17 0;
#X connect 16 0 22 0;
#X connect 17 0 231 0;
#X connect 21 0 22 0;
#X connect 21 0 23 0;
#X connect 22 0 11 0;
#X connect 23 0 24 0;
#X connect 24 0 16 0;
#X connect 25 0 26 0;
#X connect 26 0 31 0;
#X connect 26 0 30 0;
#X connect 27 0 29 0;
#X connect 27 0 35 1;
#X connect 28 0 31 0;
#X connect 30 0 31 0;
#X connect 30 0 32 0;
#X connect 31 0 27 0;
#X connect 32 0 33 0;
#X connect 33 0 28 0;
#X connect 34 0 25 0;
#X connect 35 0 36 0;
#X connect 36 0 37 0;
#X connect 36 0 39 0;
#X connect 37 0 38 0;
#X connect 38 0 232 0;
#X connect 42 0 43 0;
#X connect 43 0 48 0;
#X connect 43 0 47 0;
#X connect 44 0 46 0;
#X connect 44 0 51 1;
#X connect 45 0 48 0;
#X connect 47 0 48 0;
#X connect 47 0 49 0;
#X connect 48 0 44 0;
#X connect 49 0 50 0;
#X connect 50 0 45 0;
#X connect 51 0 52 0;
#X connect 52 0 53 0;
#X connect 52 0 55 0;
#X connect 53 0 54 0;
#X connect 54 0 284 0;
#X connect 56 0 57 0;
#X connect 57 0 62 0;
#X connect 57 0 61 0;
#X connect 58 0 60 0;
#X connect 58 0 65 1;
#X connect 59 0 62 0;
#X connect 61 0 62 0;
#X connect 61 0 63 0;
#X connect 62 0 58 0;
#X connect 63 0 64 0;
#X connect 64 0 59 0;
#X connect 65 0 66 0;
#X connect 66 0 67 0;
#X connect 66 0 69 0;
#X connect 67 0 68 0;
#X connect 68 0 253 0;
#X connect 72 0 247 0;
#X connect 73 0 72 0;
#X connect 74 0 75 0;
#X connect 75 0 76 0;
#X connect 76 0 77 0;
#X connect 77 0 73 0;
#X connect 77 0 78 0;
#X connect 78 0 79 1;
#X connect 79 0 156 0;
#X connect 79 1 156 0;
#X connect 80 0 73 1;
#X connect 80 0 81 0;
#X connect 83 0 168 0;
#X connect 83 0 172 0;
#X connect 84 0 83 0;
#X connect 85 0 84 0;
#X connect 87 0 245 0;
#X connect 88 0 89 0;
#X connect 89 0 90 0;
#X connect 90 0 91 0;
#X connect 91 0 133 0;
#X connect 91 0 92 0;
#X connect 92 0 138 1;
#X connect 93 0 133 1;
#X connect 93 0 94 0;
#X connect 96 0 249 0;
#X connect 97 0 98 0;
#X connect 98 0 99 0;
#X connect 99 0 100 0;
#X connect 100 0 134 0;
#X connect 100 0 101 0;
#X connect 101 0 139 1;
#X connect 102 0 134 1;
#X connect 102 0 103 0;
#X connect 106 0 248 0;
#X connect 107 0 108 0;
#X connect 108 0 109 0;
#X connect 109 0 110 0;
#X connect 110 0 135 0;
#X connect 110 0 111 0;
#X connect 111 0 140 1;
#X connect 112 0 135 1;
#X connect 112 0 113 0;
#X connect 115 0 244 0;
#X connect 116 0 117 0;
#X connect 117 0 118 0;
#X connect 118 0 119 0;
#X connect 119 0 120 0;
#X connect 119 0 137 0;
#X connect 120 0 141 1;
#X connect 121 0 122 0;
#X connect 121 0 137 1;
#X connect 124 0 246 0;
#X connect 125 0 126 0;
#X connect 126 0 127 0;
#X connect 127 0 128 0;
#X connect 128 0 136 0;
#X connect 128 0 129 0;
#X connect 129 0 142 1;
#X connect 130 0 136 1;
#X connect 130 0 131 0;
#X connect 133 0 87 0;
#X connect 134 0 96 0;
#X connect 135 0 106 0;
#X connect 136 0 124 0;
#X connect 137 0 115 0;
#X connect 138 0 156 0;
#X connect 138 1 156 0;
#X connect 139 0 156 0;
#X connect 139 1 156 0;
#X connect 140 0 156 0;
#X connect 140 1 156 0;
#X connect 141 0 157 0;
#X connect 141 1 157 0;
#X connect 142 0 157 0;
#X connect 142 1 157 0;
#X connect 143 0 145 0;
#X connect 143 0 149 0;
#X connect 143 0 148 0;
#X connect 143 0 147 0;
#X connect 143 0 146 0;
#X connect 143 0 144 0;
#X connect 143 0 159 0;
#X connect 143 0 162 0;
#X connect 143 0 161 0;
#X connect 143 0 160 0;
#X connect 144 0 150 0;
#X connect 145 0 151 0;
#X connect 146 0 152 0;
#X connect 147 0 153 0;
#X connect 148 0 154 0;
#X connect 149 0 155 0;
#X connect 158 0 83 0;
#X connect 159 0 163 0;
#X connect 160 0 164 0;
#X connect 161 0 165 0;
#X connect 162 0 166 0;
#X connect 167 0 168 1;
#X connect 167 0 171 1;
#X connect 167 0 170 1;
#X connect 167 0 169 1;
#X connect 167 0 172 1;
#X connect 167 0 175 1;
#X connect 167 0 174 1;
#X connect 167 0 173 1;
#X connect 167 0 180 0;
#X connect 168 0 169 0;
#X connect 169 0 170 0;
#X connect 170 0 171 0;
#X connect 171 0 176 0;
#X connect 172 0 173 0;
#X connect 173 0 174 0;
#X connect 174 0 175 0;
#X connect 175 0 176 1;
#X connect 176 0 200 0;
#X connect 176 1 201 0;
#X connect 177 0 178 0;
#X connect 178 0 176 0;
#X connect 181 0 242 0;
#X connect 182 0 252 0;
#X connect 183 0 184 0;
#X connect 184 0 185 0;
#X connect 185 0 186 0;
#X connect 186 0 191 0;
#X connect 186 0 187 0;
#X connect 188 0 191 1;
#X connect 188 0 189 0;
#X connect 191 0 182 0;
#X connect 192 0 193 0;
#X connect 193 0 194 0;
#X connect 194 0 199 0;
#X connect 195 0 194 1;
#X connect 196 0 192 0;
#X connect 197 0 222 0;
#X connect 197 0 243 0;
#X connect 198 0 195 0;
#X connect 198 0 221 0;
#X connect 202 0 205 0;
#X connect 203 0 206 0;
#X connect 204 0 207 0;
#X connect 208 0 74 0;
#X connect 209 0 88 0;
#X connect 210 0 97 0;
#X connect 211 0 107 0;
#X connect 212 0 125 0;
#X connect 213 0 116 0;
#X connect 214 0 183 0;
#X connect 215 0 80 0;
#X connect 216 0 93 0;
#X connect 217 0 102 0;
#X connect 218 0 112 0;
#X connect 219 0 130 0;
#X connect 220 0 121 0;
#X connect 223 0 42 0;
#X connect 224 0 56 0;
#X connect 225 0 79 0;
#X connect 226 0 138 0;
#X connect 227 0 139 0;
#X connect 228 0 140 0;
#X connect 229 0 141 0;
#X connect 230 0 142 0;
#X connect 231 0 233 0;
#X connect 232 0 233 0;
#X connect 234 0 240 0;
#X connect 234 0 235 0;
#X connect 234 0 238 0;
#X connect 234 0 239 0;
#X connect 235 0 225 1;
#X connect 236 0 229 1;
#X connect 237 0 230 1;
#X connect 238 0 226 1;
#X connect 239 0 227 1;
#X connect 240 0 228 1;
#X connect 241 0 237 0;
#X connect 241 0 236 0;
#X connect 241 0 251 0;
#X connect 242 0 167 0;
#X connect 243 0 167 0;
#X connect 244 0 229 0;
#X connect 245 0 226 0;
#X connect 246 0 230 0;
#X connect 247 0 225 0;
#X connect 248 0 228 0;
#X connect 249 0 227 0;
#X connect 250 0 196 0;
#X connect 251 0 250 1;
#X connect 252 0 250 0;
#X connect 253 0 254 0;
#X connect 253 0 276 0;
#X connect 253 0 282 0;
#X connect 253 0 283 0;
#X connect 254 0 285 0;
#X connect 255 0 256 0;
#X connect 256 0 261 0;
#X connect 256 0 260 0;
#X connect 257 0 259 0;
#X connect 257 0 264 1;
#X connect 258 0 261 0;
#X connect 260 0 261 0;
#X connect 260 0 262 0;
#X connect 261 0 257 0;
#X connect 262 0 263 0;
#X connect 263 0 258 0;
#X connect 264 0 265 0;
#X connect 265 0 266 0;
#X connect 265 0 268 0;
#X connect 266 0 267 0;
#X connect 267 0 271 0;
#X connect 270 0 255 0;
#X connect 271 0 254 0;
#X connect 272 0 273 1;
#X connect 273 0 274 0;
#X connect 273 1 275 0;
#X connect 274 0 279 0;
#X connect 275 0 277 0;
#X connect 276 0 273 0;
#X connect 277 0 281 0;
#X connect 278 0 280 0;
#X connect 279 0 281 0;
#X connect 280 0 284 0;
#X connect 281 0 278 0;
#X connect 282 0 278 1;
#X connect 283 0 282 0;
#X connect 284 0 254 0;
#X connect 286 0 248 1;
#X connect 286 0 247 1;
#X connect 286 0 245 1;
#X connect 286 0 249 1;
#X connect 287 0 252 1;
#X connect 287 0 244 1;
#X connect 287 0 246 1;
#X connect 288 0 188 0;
