#N canvas 960 25 1 1 12;
#X obj 202 192 inlet;
#X obj 202 216 mtof;
#X obj 202 287 osc~;
#X obj 263 236 * 2;
#X obj 263 288 osc~;
#X obj 309 288 osc~;
#X obj 355 288 osc~;
#X obj 397 288 osc~;
#X obj 443 288 osc~;
#X obj 489 288 osc~;
#X obj 531 288 osc~;
#X obj 577 288 osc~;
#X obj 201 351 *~;
#X obj 259 351 *~;
#X obj 308 351 *~;
#X obj 354 351 *~;
#X obj 396 351 *~;
#X obj 439 351 *~;
#X obj 488 351 *~;
#X obj 532 351 *~;
#X obj 577 351 *~;
#X msg 637 65 1 0.3 0.5 0.4 0.3 0.5 0.4 0.5 0.4;
#X floatatom 558 165 5 0 0 0 - - - 0;
#X floatatom 599 165 5 0 0 0 - - - 0;
#X floatatom 640 165 5 0 0 0 - - - 0;
#X floatatom 681 165 5 0 0 0 - - - 0;
#X floatatom 721 165 5 0 0 0 - - - 0;
#X floatatom 762 165 5 0 0 0 - - - 0;
#X floatatom 803 165 5 0 0 0 - - - 0;
#X floatatom 844 165 5 0 0 0 - - - 0;
#X obj 220 452 +~;
#X obj 220 476 +~;
#X obj 220 500 +~;
#X obj 220 525 +~;
#X obj 220 548 +~;
#X obj 220 572 +~;
#X obj 220 596 +~;
#X obj 220 620 +~;
#X obj 220 659 outlet~;
#X obj 307 236 * 3;
#X obj 352 236 * 4;
#X obj 396 236 * 5;
#X obj 438 236 * 6;
#X obj 482 236 * 7;
#X obj 527 236 * 8;
#X obj 571 236 * 9;
#X obj 590 64 inlet;
#X obj 637 30 loadbang;
#X obj 637 101 unpack f f f f f f f f;
#X connect 0 0 1 0;
#X connect 1 0 2 0;
#X connect 1 0 3 0;
#X connect 1 0 39 0;
#X connect 1 0 40 0;
#X connect 1 0 41 0;
#X connect 1 0 42 0;
#X connect 1 0 43 0;
#X connect 1 0 44 0;
#X connect 1 0 45 0;
#X connect 2 0 12 0;
#X connect 3 0 4 0;
#X connect 4 0 13 0;
#X connect 5 0 14 0;
#X connect 6 0 15 0;
#X connect 7 0 16 0;
#X connect 8 0 17 0;
#X connect 9 0 18 0;
#X connect 10 0 19 0;
#X connect 11 0 20 0;
#X connect 12 0 30 0;
#X connect 13 0 30 1;
#X connect 14 0 31 1;
#X connect 15 0 32 1;
#X connect 16 0 33 1;
#X connect 17 0 34 1;
#X connect 18 0 35 1;
#X connect 19 0 36 1;
#X connect 20 0 37 1;
#X connect 21 0 48 0;
#X connect 22 0 13 1;
#X connect 23 0 14 1;
#X connect 24 0 15 1;
#X connect 25 0 16 1;
#X connect 26 0 17 1;
#X connect 27 0 18 1;
#X connect 28 0 19 1;
#X connect 29 0 20 1;
#X connect 30 0 31 0;
#X connect 31 0 32 0;
#X connect 32 0 33 0;
#X connect 33 0 34 0;
#X connect 34 0 35 0;
#X connect 35 0 36 0;
#X connect 36 0 37 0;
#X connect 37 0 38 0;
#X connect 39 0 5 0;
#X connect 40 0 6 0;
#X connect 41 0 7 0;
#X connect 42 0 8 0;
#X connect 43 0 9 0;
#X connect 44 0 10 0;
#X connect 45 0 11 0;
#X connect 46 0 48 0;
#X connect 47 0 21 0;
#X connect 48 0 22 0;
#X connect 48 1 23 0;
#X connect 48 2 24 0;
#X connect 48 3 25 0;
#X connect 48 4 26 0;
#X connect 48 5 27 0;
#X connect 48 6 28 0;
#X connect 48 7 29 0;
