#N canvas 179 204 1493 1020 12;
#X obj 365 186 inlet;
#X obj 446 186 inlet;
#X obj 664 185 inlet;
#X obj 531 187 inlet;
#X obj 449 402 line~;
#X msg 300 360 1;
#X msg 384 361 0;
#X floatatom 512 326 5 0 0 0 - - - 0;
#X floatatom 365 218 5 0 0 0 - - - 0;
#X floatatom 446 210 5 0 0 0 - - - 0;
#X floatatom 531 211 5 0 1 0 - - - 0;
#X floatatom 664 209 5 0 0 0 - - - 0;
#X obj 300 330 delay 1;
#X obj 406 289 delay;
#X obj 298 203 bng 15 250 50 0 empty empty empty 17 7 0 10 #fcfcfc
#000000 #000000;
#X floatatom 445 357 5 0 0 0 - - - 0;
#X obj 406 313 delay 1;
#X obj 598 186 inlet;
#X floatatom 598 210 5 0 0 0 - - - 0;
#X obj 565 283 delay;
#X obj 565 307 delay 1;
#X floatatom 604 345 5 0 0 0 - - - 0;
#X obj 653 292 delay;
#X obj 653 316 delay 1;
#X obj 462 478 snapshot~;
#X floatatom 462 529 5 0 0 0 - - - 0;
#X obj 529 432 tgl 15 0 empty empty empty 17 7 0 10 #fcfcfc #000000
#000000 0 1;
#X obj 529 452 metro 100;
#X obj 432 98 loadbang;
#X msg 402 137 100;
#X msg 443 135 200;
#X msg 481 136 0.5;
#X msg 522 135 400;
#X msg 564 134 200;
#X obj 285 149 inlet;
#X obj 397 606 outlet~;
#X obj 558 398 loadbang;
#X connect 0 0 8 0;
#X connect 1 0 9 0;
#X connect 2 0 11 0;
#X connect 3 0 10 0;
#X connect 4 0 24 0;
#X connect 4 0 35 0;
#X connect 5 0 4 0;
#X connect 6 0 4 0;
#X connect 7 0 4 1;
#X connect 7 0 13 1;
#X connect 8 0 7 0;
#X connect 9 0 7 0;
#X connect 9 0 19 1;
#X connect 10 0 15 0;
#X connect 11 0 4 1;
#X connect 12 0 5 0;
#X connect 12 0 13 0;
#X connect 13 0 16 0;
#X connect 13 0 9 0;
#X connect 14 0 8 0;
#X connect 14 0 12 0;
#X connect 15 0 4 0;
#X connect 16 0 15 0;
#X connect 16 0 19 0;
#X connect 17 0 18 0;
#X connect 18 0 21 0;
#X connect 18 0 22 1;
#X connect 19 0 20 0;
#X connect 19 0 18 0;
#X connect 20 0 22 0;
#X connect 22 0 23 0;
#X connect 22 0 11 0;
#X connect 23 0 6 0;
#X connect 24 0 25 0;
#X connect 26 0 27 0;
#X connect 27 0 24 0;
#X connect 28 0 29 0;
#X connect 28 0 33 0;
#X connect 28 0 32 0;
#X connect 28 0 31 0;
#X connect 28 0 30 0;
#X connect 29 0 8 0;
#X connect 30 0 9 0;
#X connect 31 0 10 0;
#X connect 32 0 18 0;
#X connect 33 0 11 0;
#X connect 34 0 14 0;
#X connect 36 0 26 0;
